solid OpenSCAD_Model
  facet normal -0.540476 0.545811 0.640294
    outer loop
      vertex -13.0587 14.6004 1.28334
      vertex -14.8695 12.8073 1.28334
      vertex -12.7334 13.8198 2.22334
    endloop
  endfacet
  facet normal 0.0679876 -0.752066 0.655572
    outer loop
      vertex -12.7334 13.8198 2.22334
      vertex -14.8695 12.8073 1.28334
      vertex -12.2921 13.0403 1.28334
    endloop
  endfacet
  facet normal -0.201766 -0.579452 0.789636
    outer loop
      vertex -9.17478 13.4066 2.34867
      vertex -12.2921 13.0403 1.28334
      vertex -9.54628 12.0842 1.28334
    endloop
  endfacet
  facet normal -0.112969 -0.790249 0.602283
    outer loop
      vertex -9.17478 13.4066 2.34867
      vertex -12.7334 13.8198 2.22334
      vertex -12.2921 13.0403 1.28334
    endloop
  endfacet
  facet normal 0.0458228 0.629827 0.775382
    outer loop
      vertex -8.74964 14.6872 1.28334
      vertex -12.7334 13.8198 2.22334
      vertex -9.17478 13.4066 2.34867
    endloop
  endfacet
  facet normal -0.015442 0.766596 0.641944
    outer loop
      vertex -8.74964 14.6872 1.28334
      vertex -13.0587 14.6004 1.28334
      vertex -12.7334 13.8198 2.22334
    endloop
  endfacet
  facet normal 0.359495 0.544649 0.757708
    outer loop
      vertex -6.30458 12.9942 1.28334
      vertex -9.17478 13.4066 2.34867
      vertex -7.69673 12.0823 2.59933
    endloop
  endfacet
  facet normal 0.361681 0.522346 0.772231
    outer loop
      vertex -8.74964 14.6872 1.28334
      vertex -9.17478 13.4066 2.34867
      vertex -6.30458 12.9942 1.28334
    endloop
  endfacet
  facet normal -0.548201 -0.326473 0.769994
    outer loop
      vertex -7.69673 12.0823 2.59933
      vertex -9.54628 12.0842 1.28334
      vertex -8.87416 10.9556 1.28334
    endloop
  endfacet
  facet normal -0.520237 -0.442364 0.730525
    outer loop
      vertex -9.17478 13.4066 2.34867
      vertex -9.54628 12.0842 1.28334
      vertex -7.69673 12.0823 2.59933
    endloop
  endfacet
  facet normal -0.678812 0.222441 0.69981
    outer loop
      vertex -8.87416 10.9556 1.28334
      vertex -10.0116 7.48454 1.28334
      vertex -8.22373 8.87746 2.57481
    endloop
  endfacet
  facet normal -0.596494 0.280617 0.751964
    outer loop
      vertex -6.97954 11.1206 2.72467
      vertex -8.87416 10.9556 1.28334
      vertex -8.22373 8.87746 2.57481
    endloop
  endfacet
  facet normal -0.557038 -0.315277 0.768316
    outer loop
      vertex -7.69673 12.0823 2.59933
      vertex -8.87416 10.9556 1.28334
      vertex -6.97954 11.1206 2.72467
    endloop
  endfacet
  facet normal -0.149854 0.0170748 0.988561
    outer loop
      vertex -6.97954 11.1206 2.72467
      vertex -8.22373 8.87746 2.57481
      vertex -6.26235 10.1588 2.85
    endloop
  endfacet
  facet normal 0.723178 -0.140742 0.67617
    outer loop
      vertex -8.22373 8.87746 2.57481
      vertex -8.80538 6.00656 2.59933
      vertex -7.27915 7.52638 1.28334
    endloop
  endfacet
  facet normal -0.431874 -0.249329 0.866787
    outer loop
      vertex -8.22373 8.87746 2.57481
      vertex -10.0116 7.48454 1.28334
      vertex -9.40337 6.431 1.28334
    endloop
  endfacet
  facet normal -0.872206 0.180593 0.454579
    outer loop
      vertex -8.22373 8.87746 2.57481
      vertex -9.40337 6.431 1.28334
      vertex -8.80538 6.00656 2.59933
    endloop
  endfacet
  facet normal -0.63151 0.503547 0.589606
    outer loop
      vertex -9.40337 6.431 1.28334
      vertex -10.8008 4.67845 1.28334
      vertex -9.71506 4.57257 2.53667
    endloop
  endfacet
  facet normal -0.747539 0.452989 0.485784
    outer loop
      vertex -9.40337 6.431 1.28334
      vertex -9.71506 4.57257 2.53667
      vertex -8.80538 6.00656 2.59933
    endloop
  endfacet
  facet normal 0.664386 -0.447619 0.598522
    outer loop
      vertex -8.80538 6.00656 2.59933
      vertex -9.71506 4.57257 2.53667
      vertex -8.77928 4.28566 1.28334
    endloop
  endfacet
  facet normal 0.789312 -0.365373 0.493447
    outer loop
      vertex -7.27915 7.52638 1.28334
      vertex -8.80538 6.00656 2.59933
      vertex -8.77928 4.28566 1.28334
    endloop
  endfacet
  facet normal 0.544318 -0.632396 0.551174
    outer loop
      vertex -9.71506 4.57257 2.53667
      vertex -10.8138 2.5345 1.28334
      vertex -8.77928 4.28566 1.28334
    endloop
  endfacet
  facet normal 0.28638 -0.609169 0.739527
    outer loop
      vertex -9.71506 4.57257 2.53667
      vertex -11.3511 3.65128 2.41133
      vertex -10.8138 2.5345 1.28334
    endloop
  endfacet
  facet normal -0.00296944 -0.711333 0.702849
    outer loop
      vertex -11.3511 3.65128 2.41133
      vertex -11.7744 2.53851 1.28334
      vertex -10.8138 2.5345 1.28334
    endloop
  endfacet
  facet normal -0.46145 0.756371 0.463644
    outer loop
      vertex -10.8008 4.67845 1.28334
      vertex -11.3511 3.65128 2.41133
      vertex -9.71506 4.57257 2.53667
    endloop
  endfacet
  facet normal 0.485699 0.427464 0.762477
    outer loop
      vertex -13.0476 7.23134 1.28334
      vertex -13.6523 6.24172 2.22334
      vertex -10.8008 4.67845 1.28334
    endloop
  endfacet
  facet normal 0.505951 0.500443 0.702546
    outer loop
      vertex -10.8008 4.67845 1.28334
      vertex -13.6523 6.24172 2.22334
      vertex -11.3511 3.65128 2.41133
    endloop
  endfacet
  facet normal 0.420248 -0.150871 0.894779
    outer loop
      vertex 4.46583 2.04355 1.28334
      vertex 1.51307 2.73851 2.78733
      vertex 4.08441 0.981111 1.28334
    endloop
  endfacet
  facet normal 0.483531 0.222094 0.846683
    outer loop
      vertex 2.95759 5.3272 1.28334
      vertex 1.51307 2.73851 2.78733
      vertex 4.46583 2.04355 1.28334
    endloop
  endfacet
  facet normal 0.10571 -0.552751 0.826614
    outer loop
      vertex 1.51307 2.73851 2.78733
      vertex -2.86102e-06 0.199998 1.28334
      vertex 4.08441 0.981111 1.28334
    endloop
  endfacet
  facet normal -0.360808 -0.434447 0.825272
    outer loop
      vertex -1.57668 5.06647 2.662
      vertex -2.86151 3.51463 1.28334
      vertex 1.51307 2.73851 2.78733
    endloop
  endfacet
  facet normal -0.357773 -0.308864 0.88125
    outer loop
      vertex 1.51307 2.73851 2.78733
      vertex -2.86151 3.51463 1.28334
      vertex -2.86102e-06 0.199998 1.28334
    endloop
  endfacet
  facet normal 0.171534 0.421597 0.890411
    outer loop
      vertex 2.95759 5.3272 1.28334
      vertex -0.387118 6.68805 1.28334
      vertex 1.51307 2.73851 2.78733
    endloop
  endfacet
  facet normal 0.318667 0.467342 0.824647
    outer loop
      vertex -0.387118 6.68805 1.28334
      vertex -1.57668 5.06647 2.662
      vertex 1.51307 2.73851 2.78733
    endloop
  endfacet
  facet normal 0.918786 0.177528 0.352586
    outer loop
      vertex -0.557712 7.57095 1.28334
      vertex -1.26882 8.38864 2.72467
      vertex -0.387118 6.68805 1.28334
    endloop
  endfacet
  facet normal 0.416515 0.301683 0.857614
    outer loop
      vertex -2.1841 8.98186 1.28334
      vertex -6.26235 10.1588 2.85
      vertex -3.52883 6.3848 2.85
    endloop
  endfacet
  facet normal 0.429404 0.432874 0.792611
    outer loop
      vertex -4.63942 11.4175 1.28334
      vertex -6.26235 10.1588 2.85
      vertex -2.1841 8.98186 1.28334
    endloop
  endfacet
  facet normal -0.519233 0.622253 0.585831
    outer loop
      vertex -2.1841 8.98186 1.28334
      vertex -3.52883 6.3848 2.85
      vertex -1.26882 8.38864 2.72467
    endloop
  endfacet
  facet normal 0.26001 -0.566019 0.782315
    outer loop
      vertex -6.26235 10.1588 2.85
      vertex -8.22373 8.87746 2.57481
      vertex -7.27915 7.52638 1.28334
    endloop
  endfacet
  facet normal -0.446911 -0.323699 0.83396
    outer loop
      vertex -6.26235 10.1588 2.85
      vertex -7.27915 7.52638 1.28334
      vertex -3.52883 6.3848 2.85
    endloop
  endfacet
  facet normal -0.411361 -0.109612 0.904858
    outer loop
      vertex -3.52883 6.3848 2.85
      vertex -7.27915 7.52638 1.28334
      vertex -6.31011 3.88968 1.28334
    endloop
  endfacet
  facet normal -0.264648 -0.508713 0.819251
    outer loop
      vertex -1.57668 5.06647 2.662
      vertex -3.52883 6.3848 2.85
      vertex -2.86151 3.51463 1.28334
    endloop
  endfacet
  facet normal 0.0836254 -0.462386 0.882726
    outer loop
      vertex -3.52883 6.3848 2.85
      vertex -4.34313 3.24667 1.28334
      vertex -2.86151 3.51463 1.28334
    endloop
  endfacet
  facet normal -0.592334 0.539656 0.598257
    outer loop
      vertex 0.230419 10.1037 2.662
      vertex -2.1841 8.98186 1.28334
      vertex -1.26882 8.38864 2.72467
    endloop
  endfacet
  facet normal -0.589706 0.585161 0.556627
    outer loop
      vertex 1.20591 12.3982 1.28334
      vertex -2.1841 8.98186 1.28334
      vertex 0.230419 10.1037 2.662
    endloop
  endfacet
  facet normal -0.339335 0.586268 0.735623
    outer loop
      vertex 1.20591 12.3982 1.28334
      vertex 0.230419 10.1037 2.662
      vertex 1.38066 10.8481 2.59933
    endloop
  endfacet
  facet normal 0.642164 -0.486198 0.592652
    outer loop
      vertex 0.882824 9.47359 1.28334
      vertex -1.26882 8.38864 2.72467
      vertex -0.557712 7.57095 1.28334
    endloop
  endfacet
  facet normal 0.639246 -0.538752 0.548736
    outer loop
      vertex 0.230419 10.1037 2.662
      vertex -1.26882 8.38864 2.72467
      vertex 0.882824 9.47359 1.28334
    endloop
  endfacet
  facet normal -0.688071 -0.0253186 0.725202
    outer loop
      vertex 3.31947 9.55921 2.22334
      vertex 2.35157 8.93886 1.28334
      vertex 2.38569 8.0116 1.28334
    endloop
  endfacet
  facet normal -0.0980342 -0.472754 0.875724
    outer loop
      vertex 3.31947 9.55921 2.22334
      vertex 2.38569 8.0116 1.28334
      vertex 4.05986 7.66443 1.28334
    endloop
  endfacet
  facet normal 0.720045 -0.0615412 0.691193
    outer loop
      vertex 4.27552 10.1877 1.28334
      vertex 3.31947 9.55921 2.22334
      vertex 4.05986 7.66443 1.28334
    endloop
  endfacet
  facet normal 0.271927 0.649022 0.710511
    outer loop
      vertex 4.27552 10.1877 1.28334
      vertex 2.70098 10.8474 1.28334
      vertex 3.31947 9.55921 2.22334
    endloop
  endfacet
  facet normal 0.586398 0.641986 0.493955
    outer loop
      vertex 2.70098 10.8474 1.28334
      vertex 2.35006 10.2036 2.53667
      vertex 3.31947 9.55921 2.22334
    endloop
  endfacet
  facet normal 0.50102 0.704756 0.502293
    outer loop
      vertex 2.70098 10.8474 1.28334
      vertex 1.38066 10.8481 2.59933
      vertex 2.35006 10.2036 2.53667
    endloop
  endfacet
  facet normal 0.58371 0.562734 0.585331
    outer loop
      vertex 2.70098 10.8474 1.28334
      vertex 1.20591 12.3982 1.28334
      vertex 1.38066 10.8481 2.59933
    endloop
  endfacet
  facet normal 0.769315 -0.273021 0.577593
    outer loop
      vertex -5.3138 12.3013 2.59933
      vertex -6.26235 10.1588 2.85
      vertex -4.63942 11.4175 1.28334
    endloop
  endfacet
  facet normal -0.0787106 0.856447 0.510199
    outer loop
      vertex -6.30458 12.9942 1.28334
      vertex -7.69673 12.0823 2.59933
      vertex -5.3138 12.3013 2.59933
    endloop
  endfacet
  facet normal -0.0111159 0.121053 0.992584
    outer loop
      vertex -5.3138 12.3013 2.59933
      vertex -6.97954 11.1206 2.72467
      vertex -6.26235 10.1588 2.85
    endloop
  endfacet
  facet normal -0.0111265 0.121067 0.992582
    outer loop
      vertex -6.97954 11.1206 2.72467
      vertex -5.3138 12.3013 2.59933
      vertex -7.69673 12.0823 2.59933
    endloop
  endfacet
  facet normal 0.335298 -0.629855 0.700612
    outer loop
      vertex -3.50916 13.3436 2.474
      vertex -4.63942 11.4175 1.28334
      vertex -1.61354 13.0283 1.28334
    endloop
  endfacet
  facet normal 0.415594 -0.6421 0.644197
    outer loop
      vertex -3.50916 13.3436 2.474
      vertex -5.3138 12.3013 2.59933
      vertex -4.63942 11.4175 1.28334
    endloop
  endfacet
  facet normal 0.361182 -0.581462 0.729006
    outer loop
      vertex -1.70452 14.386 2.41133
      vertex -3.50916 13.3436 2.474
      vertex -1.61354 13.0283 1.28334
    endloop
  endfacet
  facet normal 0.654543 -0.456698 0.602495
    outer loop
      vertex -0.295169 14.9178 1.28334
      vertex -1.70452 14.386 2.41133
      vertex -1.61354 13.0283 1.28334
    endloop
  endfacet
  facet normal 0.57521 0.171913 0.799737
    outer loop
      vertex -0.295169 14.9178 1.28334
      vertex -1.94504 15.7738 2.286
      vertex -1.70452 14.386 2.41133
    endloop
  endfacet
  facet normal -0.172529 0.720027 0.672157
    outer loop
      vertex -2.38277 14.725 1.28334
      vertex -4.77954 14.1507 1.28334
      vertex -3.50916 13.3436 2.474
    endloop
  endfacet
  facet normal -0.424693 0.764408 0.485095
    outer loop
      vertex -2.38277 14.725 1.28334
      vertex -3.50916 13.3436 2.474
      vertex -1.70452 14.386 2.41133
    endloop
  endfacet
  facet normal -0.454863 0.599814 0.658273
    outer loop
      vertex -4.77954 14.1507 1.28334
      vertex -6.30458 12.9942 1.28334
      vertex -5.3138 12.3013 2.59933
    endloop
  endfacet
  facet normal -0.300823 0.609086 0.733839
    outer loop
      vertex -4.77954 14.1507 1.28334
      vertex -5.3138 12.3013 2.59933
      vertex -3.50916 13.3436 2.474
    endloop
  endfacet
  facet normal -0.854487 -0.125321 0.50413
    outer loop
      vertex -2.18556 17.1617 2.22334
      vertex -2.38277 14.725 1.28334
      vertex -1.94504 15.7738 2.286
    endloop
  endfacet
  facet normal -0.722143 -0.19732 0.663004
    outer loop
      vertex -2.18556 17.1617 2.22334
      vertex -3.65985 19.3988 1.28334
      vertex -2.38277 14.725 1.28334
    endloop
  endfacet
  facet normal -0.865921 -0.105927 0.488836
    outer loop
      vertex -1.94504 15.7738 2.286
      vertex -2.38277 14.725 1.28334
      vertex -1.70452 14.386 2.41133
    endloop
  endfacet
  facet normal 0.600543 0.280379 0.748823
    outer loop
      vertex -1.30138 17.073 1.28334
      vertex -1.94504 15.7738 2.286
      vertex -0.295169 14.9178 1.28334
    endloop
  endfacet
  facet normal 0.726779 0.156148 0.668887
    outer loop
      vertex -1.30138 17.073 1.28334
      vertex -2.18556 17.1617 2.22334
      vertex -1.94504 15.7738 2.286
    endloop
  endfacet
  facet normal 0.726995 -0.0250347 0.686186
    outer loop
      vertex -1.19821 20.069 1.28334
      vertex -2.18556 17.1617 2.22334
      vertex -1.30138 17.073 1.28334
    endloop
  endfacet
  facet normal -0.0909913 0.334211 0.938096
    outer loop
      vertex -1.19821 20.069 1.28334
      vertex -3.65985 19.3988 1.28334
      vertex -2.18556 17.1617 2.22334
    endloop
  endfacet
  facet normal -0.518563 -0.406054 0.752471
    outer loop
      vertex -13.6523 6.24172 2.22334
      vertex -14.2285 5.23563 1.28334
      vertex -11.3511 3.65128 2.41133
    endloop
  endfacet
  facet normal -0.538526 -0.490003 0.685483
    outer loop
      vertex -11.3511 3.65128 2.41133
      vertex -14.2285 5.23563 1.28334
      vertex -11.7744 2.53851 1.28334
    endloop
  endfacet
  facet normal -0.146613 0.726879 0.670933
    outer loop
      vertex -13.0476 7.23134 1.28334
      vertex -15.9258 6.6508 1.28334
      vertex -13.6523 6.24172 2.22334
    endloop
  endfacet
  facet normal -0.000454243 -0.682561 0.730829
    outer loop
      vertex -13.6523 6.24172 2.22334
      vertex -15.3705 5.23639 1.28334
      vertex -14.2285 5.23563 1.28334
    endloop
  endfacet
  facet normal -0.401397 -0.157589 0.902245
    outer loop
      vertex -13.6523 6.24172 2.22334
      vertex -15.9258 6.6508 1.28334
      vertex -15.3705 5.23639 1.28334
    endloop
  endfacet
  facet normal -0.739077 0.406871 0.536862
    outer loop
      vertex -6.31011 3.88968 1.28334
      vertex -8.46604 -0.0265484 1.28334
      vertex -7.5459 -0.00887871 2.53667
    endloop
  endfacet
  facet normal -0.695288 0.410143 0.590217
    outer loop
      vertex -6.31011 3.88968 1.28334
      vertex -7.5459 -0.00887871 2.53667
      vertex -5.3738 3.49298 2.662
    endloop
  endfacet
  facet normal -0.697236 0.406447 0.590477
    outer loop
      vertex -3.52883 6.3848 2.85
      vertex -6.31011 3.88968 1.28334
      vertex -5.3738 3.49298 2.662
    endloop
  endfacet
  facet normal 0.663164 -0.472792 0.580242
    outer loop
      vertex -5.3738 3.49298 2.662
      vertex -6.62934 0.0399027 1.28334
      vertex -4.34313 3.24667 1.28334
    endloop
  endfacet
  facet normal 0.667793 -0.463893 0.582113
    outer loop
      vertex -3.52883 6.3848 2.85
      vertex -5.3738 3.49298 2.662
      vertex -4.34313 3.24667 1.28334
    endloop
  endfacet
  facet normal 0.722552 -0.466439 0.510248
    outer loop
      vertex -5.3738 3.49298 2.662
      vertex -7.5459 -0.00887871 2.53667
      vertex -6.62934 0.0399027 1.28334
    endloop
  endfacet
  facet normal 0.801761 0.095101 0.590029
    outer loop
      vertex -6.62934 0.0399027 1.28334
      vertex -7.5459 -0.00887871 2.53667
      vertex -7.09383 -1.87614 2.22334
    endloop
  endfacet
  facet normal 0.285798 -0.351132 0.891642
    outer loop
      vertex -6.12619 -3.47552 1.28334
      vertex -7.09383 -1.87614 2.22334
      vertex -6.5448 -3.81624 1.28334
    endloop
  endfacet
  facet normal 0.781324 0.111828 0.614026
    outer loop
      vertex -6.62934 0.0399027 1.28334
      vertex -7.09383 -1.87614 2.22334
      vertex -6.12619 -3.47552 1.28334
    endloop
  endfacet
  facet normal -0.776646 -0.259855 0.573843
    outer loop
      vertex -7.5459 -0.00887871 2.53667
      vertex -8.46604 -0.0265484 1.28334
      vertex -7.78783 -2.05356 1.28334
    endloop
  endfacet
  facet normal -0.745695 -0.281844 0.603741
    outer loop
      vertex -7.5459 -0.00887871 2.53667
      vertex -7.78783 -2.05356 1.28334
      vertex -7.09383 -1.87614 2.22334
    endloop
  endfacet
  facet normal -0.521052 0.822084 0.229528
    outer loop
      vertex -7.78783 -2.05356 1.28334
      vertex -8.60939 -2.57428 1.28334
      vertex -7.09383 -1.87614 2.22334
    endloop
  endfacet
  facet normal -0.494582 -0.0902372 0.864434
    outer loop
      vertex -7.09383 -1.87614 2.22334
      vertex -8.60939 -2.57428 1.28334
      vertex -8.42391 -3.59088 1.28334
    endloop
  endfacet
  facet normal -0.0536878 -0.447663 0.892589
    outer loop
      vertex -7.09383 -1.87614 2.22334
      vertex -8.42391 -3.59088 1.28334
      vertex -6.5448 -3.81624 1.28334
    endloop
  endfacet
  facet normal 0.47721 -0.691752 0.541986
    outer loop
      vertex 1.38066 10.8481 2.59933
      vertex 0.230419 10.1037 2.662
      vertex 0.882824 9.47359 1.28334
    endloop
  endfacet
  facet normal -0.248298 -0.682002 0.687911
    outer loop
      vertex 2.35006 10.2036 2.53667
      vertex 0.882824 9.47359 1.28334
      vertex 2.35157 8.93886 1.28334
    endloop
  endfacet
  facet normal -0.231952 -0.684838 0.690793
    outer loop
      vertex 3.31947 9.55921 2.22334
      vertex 2.35006 10.2036 2.53667
      vertex 2.35157 8.93886 1.28334
    endloop
  endfacet
  facet normal -0.340038 -0.583181 0.73775
    outer loop
      vertex 1.38066 10.8481 2.59933
      vertex 0.882824 9.47359 1.28334
      vertex 2.35006 10.2036 2.53667
    endloop
  endfacet
  facet normal -0.709837 0.704366 0
    outer loop
      vertex -2.1841 8.98186 0
      vertex 1.20591 12.3982 1.28334
      vertex 1.20591 12.3982 0
    endloop
  endfacet
  facet normal -0.709837 0.704366 0
    outer loop
      vertex 1.20591 12.3982 1.28334
      vertex -2.1841 8.98186 0
      vertex -2.1841 8.98186 1.28334
    endloop
  endfacet
  facet normal 0.719924 0.694053 0
    outer loop
      vertex 2.70098 10.8474 1.28334
      vertex 1.20591 12.3982 0
      vertex 1.20591 12.3982 1.28334
    endloop
  endfacet
  facet normal 0.719924 0.694053 0
    outer loop
      vertex 1.20591 12.3982 0
      vertex 2.70098 10.8474 1.28334
      vertex 2.70098 10.8474 0
    endloop
  endfacet
  facet normal 0.386432 0.922318 -0
    outer loop
      vertex 4.27552 10.1877 0
      vertex 2.70098 10.8474 1.28334
      vertex 4.27552 10.1877 1.28334
    endloop
  endfacet
  facet normal 0.386432 0.922318 0
    outer loop
      vertex 2.70098 10.8474 1.28334
      vertex 4.27552 10.1877 0
      vertex 2.70098 10.8474 0
    endloop
  endfacet
  facet normal 0.996367 -0.085158 0
    outer loop
      vertex 4.05986 7.66443 1.28334
      vertex 4.27552 10.1877 0
      vertex 4.27552 10.1877 1.28334
    endloop
  endfacet
  facet normal 0.996367 -0.085158 0
    outer loop
      vertex 4.27552 10.1877 0
      vertex 4.05986 7.66443 1.28334
      vertex 4.05986 7.66443 0
    endloop
  endfacet
  facet normal -0.203049 -0.979169 0
    outer loop
      vertex 2.38569 8.0116 0
      vertex 4.05986 7.66443 1.28334
      vertex 2.38569 8.0116 1.28334
    endloop
  endfacet
  facet normal -0.203049 -0.979169 -0
    outer loop
      vertex 4.05986 7.66443 1.28334
      vertex 2.38569 8.0116 0
      vertex 4.05986 7.66443 0
    endloop
  endfacet
  facet normal -0.999324 -0.0367717 0
    outer loop
      vertex 2.38569 8.0116 0
      vertex 2.35157 8.93886 1.28334
      vertex 2.35157 8.93886 0
    endloop
  endfacet
  facet normal -0.999324 -0.0367717 0
    outer loop
      vertex 2.35157 8.93886 1.28334
      vertex 2.38569 8.0116 0
      vertex 2.38569 8.0116 1.28334
    endloop
  endfacet
  facet normal -0.342105 -0.939662 0
    outer loop
      vertex 0.882824 9.47359 0
      vertex 2.35157 8.93886 1.28334
      vertex 0.882824 9.47359 1.28334
    endloop
  endfacet
  facet normal -0.342105 -0.939662 -0
    outer loop
      vertex 2.35157 8.93886 1.28334
      vertex 0.882824 9.47359 0
      vertex 2.35157 8.93886 0
    endloop
  endfacet
  facet normal 0.797265 -0.603629 0
    outer loop
      vertex -0.557712 7.57095 1.28334
      vertex 0.882824 9.47359 0
      vertex 0.882824 9.47359 1.28334
    endloop
  endfacet
  facet normal 0.797265 -0.603629 0
    outer loop
      vertex 0.882824 9.47359 0
      vertex -0.557712 7.57095 1.28334
      vertex -0.557712 7.57095 0
    endloop
  endfacet
  facet normal 0.98184 0.189711 0
    outer loop
      vertex -0.387118 6.68805 1.28334
      vertex -0.557712 7.57095 0
      vertex -0.557712 7.57095 1.28334
    endloop
  endfacet
  facet normal 0.98184 0.189711 0
    outer loop
      vertex -0.557712 7.57095 0
      vertex -0.387118 6.68805 1.28334
      vertex -0.387118 6.68805 0
    endloop
  endfacet
  facet normal 0.376867 0.926267 -0
    outer loop
      vertex 2.95759 5.3272 0
      vertex -0.387118 6.68805 1.28334
      vertex 2.95759 5.3272 1.28334
    endloop
  endfacet
  facet normal 0.376867 0.926267 0
    outer loop
      vertex -0.387118 6.68805 1.28334
      vertex 2.95759 5.3272 0
      vertex -0.387118 6.68805 0
    endloop
  endfacet
  facet normal 0.908726 0.417394 0
    outer loop
      vertex 4.46583 2.04355 1.28334
      vertex 2.95759 5.3272 0
      vertex 2.95759 5.3272 1.28334
    endloop
  endfacet
  facet normal 0.908726 0.417394 0
    outer loop
      vertex 2.95759 5.3272 0
      vertex 4.46583 2.04355 1.28334
      vertex 4.46583 2.04355 0
    endloop
  endfacet
  facet normal 0.941186 -0.33789 0
    outer loop
      vertex 4.08441 0.981111 1.28334
      vertex 4.46583 2.04355 0
      vertex 4.46583 2.04355 1.28334
    endloop
  endfacet
  facet normal 0.941186 -0.33789 0
    outer loop
      vertex 4.46583 2.04355 0
      vertex 4.08441 0.981111 1.28334
      vertex 4.08441 0.981111 0
    endloop
  endfacet
  facet normal 0.187838 -0.9822 0
    outer loop
      vertex -2.86102e-06 0.199998 0
      vertex 4.08441 0.981111 1.28334
      vertex -2.86102e-06 0.199998 1.28334
    endloop
  endfacet
  facet normal 0.187838 -0.9822 0
    outer loop
      vertex 4.08441 0.981111 1.28334
      vertex -2.86102e-06 0.199998 0
      vertex 4.08441 0.981111 0
    endloop
  endfacet
  facet normal -0.756951 -0.653472 0
    outer loop
      vertex -2.86102e-06 0.199998 0
      vertex -2.86151 3.51463 1.28334
      vertex -2.86151 3.51463 0
    endloop
  endfacet
  facet normal -0.756951 -0.653472 0
    outer loop
      vertex -2.86151 3.51463 1.28334
      vertex -2.86102e-06 0.199998 0
      vertex -2.86102e-06 0.199998 1.28334
    endloop
  endfacet
  facet normal 0.177969 -0.984036 0
    outer loop
      vertex -4.34313 3.24667 0
      vertex -2.86151 3.51463 1.28334
      vertex -4.34313 3.24667 1.28334
    endloop
  endfacet
  facet normal 0.177969 -0.984036 0
    outer loop
      vertex -2.86151 3.51463 1.28334
      vertex -4.34313 3.24667 0
      vertex -2.86151 3.51463 0
    endloop
  endfacet
  facet normal 0.814254 -0.580509 0
    outer loop
      vertex -6.62934 0.0399027 1.28334
      vertex -4.34313 3.24667 0
      vertex -4.34313 3.24667 1.28334
    endloop
  endfacet
  facet normal 0.814254 -0.580509 0
    outer loop
      vertex -4.34313 3.24667 0
      vertex -6.62934 0.0399027 1.28334
      vertex -6.62934 0.0399027 0
    endloop
  endfacet
  facet normal 0.989912 0.141683 0
    outer loop
      vertex -6.12619 -3.47552 1.28334
      vertex -6.62934 0.0399027 0
      vertex -6.62934 0.0399027 1.28334
    endloop
  endfacet
  facet normal 0.989912 0.141683 0
    outer loop
      vertex -6.62934 0.0399027 0
      vertex -6.12619 -3.47552 1.28334
      vertex -6.12619 -3.47552 0
    endloop
  endfacet
  facet normal 0.631261 -0.77557 0
    outer loop
      vertex -6.5448 -3.81624 0
      vertex -6.12619 -3.47552 1.28334
      vertex -6.5448 -3.81624 1.28334
    endloop
  endfacet
  facet normal 0.631261 -0.77557 0
    outer loop
      vertex -6.12619 -3.47552 1.28334
      vertex -6.5448 -3.81624 0
      vertex -6.12619 -3.47552 0
    endloop
  endfacet
  facet normal -0.119076 -0.992885 0
    outer loop
      vertex -8.42391 -3.59088 0
      vertex -6.5448 -3.81624 1.28334
      vertex -8.42391 -3.59088 1.28334
    endloop
  endfacet
  facet normal -0.119076 -0.992885 -0
    outer loop
      vertex -6.5448 -3.81624 1.28334
      vertex -8.42391 -3.59088 0
      vertex -6.5448 -3.81624 0
    endloop
  endfacet
  facet normal -0.98376 -0.179488 0
    outer loop
      vertex -8.42391 -3.59088 0
      vertex -8.60939 -2.57428 1.28334
      vertex -8.60939 -2.57428 0
    endloop
  endfacet
  facet normal -0.98376 -0.179488 0
    outer loop
      vertex -8.60939 -2.57428 1.28334
      vertex -8.42391 -3.59088 0
      vertex -8.42391 -3.59088 1.28334
    endloop
  endfacet
  facet normal -0.535345 0.844634 0
    outer loop
      vertex -7.78783 -2.05356 0
      vertex -8.60939 -2.57428 1.28334
      vertex -7.78783 -2.05356 1.28334
    endloop
  endfacet
  facet normal -0.535345 0.844634 0
    outer loop
      vertex -8.60939 -2.57428 1.28334
      vertex -7.78783 -2.05356 0
      vertex -8.60939 -2.57428 0
    endloop
  endfacet
  facet normal -0.948326 -0.317297 0
    outer loop
      vertex -7.78783 -2.05356 0
      vertex -8.46604 -0.0265484 1.28334
      vertex -8.46604 -0.0265484 0
    endloop
  endfacet
  facet normal -0.948326 -0.317297 0
    outer loop
      vertex -8.46604 -0.0265484 1.28334
      vertex -7.78783 -2.05356 0
      vertex -7.78783 -2.05356 1.28334
    endloop
  endfacet
  facet normal -0.876027 0.482263 0
    outer loop
      vertex -8.46604 -0.0265484 0
      vertex -6.31011 3.88968 1.28334
      vertex -6.31011 3.88968 0
    endloop
  endfacet
  facet normal -0.876027 0.482263 0
    outer loop
      vertex -6.31011 3.88968 1.28334
      vertex -8.46604 -0.0265484 0
      vertex -8.46604 -0.0265484 1.28334
    endloop
  endfacet
  facet normal -0.966284 -0.257477 0
    outer loop
      vertex -6.31011 3.88968 0
      vertex -7.27915 7.52638 1.28334
      vertex -7.27915 7.52638 0
    endloop
  endfacet
  facet normal -0.966284 -0.257477 0
    outer loop
      vertex -7.27915 7.52638 1.28334
      vertex -6.31011 3.88968 0
      vertex -6.31011 3.88968 1.28334
    endloop
  endfacet
  facet normal 0.907489 -0.420077 0
    outer loop
      vertex -8.77928 4.28566 1.28334
      vertex -7.27915 7.52638 0
      vertex -7.27915 7.52638 1.28334
    endloop
  endfacet
  facet normal 0.907489 -0.420077 0
    outer loop
      vertex -7.27915 7.52638 0
      vertex -8.77928 4.28566 1.28334
      vertex -8.77928 4.28566 0
    endloop
  endfacet
  facet normal 0.652355 -0.757914 0
    outer loop
      vertex -10.8138 2.5345 0
      vertex -8.77928 4.28566 1.28334
      vertex -10.8138 2.5345 1.28334
    endloop
  endfacet
  facet normal 0.652355 -0.757914 0
    outer loop
      vertex -8.77928 4.28566 1.28334
      vertex -10.8138 2.5345 0
      vertex -8.77928 4.28566 0
    endloop
  endfacet
  facet normal -0.00417444 -0.999991 0
    outer loop
      vertex -11.7744 2.53851 0
      vertex -10.8138 2.5345 1.28334
      vertex -11.7744 2.53851 1.28334
    endloop
  endfacet
  facet normal -0.00417444 -0.999991 -0
    outer loop
      vertex -10.8138 2.5345 1.28334
      vertex -11.7744 2.53851 0
      vertex -10.8138 2.5345 0
    endloop
  endfacet
  facet normal -0.739643 -0.672999 0
    outer loop
      vertex -11.7744 2.53851 0
      vertex -14.2285 5.23563 1.28334
      vertex -14.2285 5.23563 0
    endloop
  endfacet
  facet normal -0.739643 -0.672999 0
    outer loop
      vertex -14.2285 5.23563 1.28334
      vertex -11.7744 2.53851 0
      vertex -11.7744 2.53851 1.28334
    endloop
  endfacet
  facet normal -0.000665499 -1 0
    outer loop
      vertex -15.3705 5.23639 0
      vertex -14.2285 5.23563 1.28334
      vertex -15.3705 5.23639 1.28334
    endloop
  endfacet
  facet normal -0.000665499 -1 -0
    outer loop
      vertex -14.2285 5.23563 1.28334
      vertex -15.3705 5.23639 0
      vertex -14.2285 5.23563 0
    endloop
  endfacet
  facet normal -0.930832 -0.365447 0
    outer loop
      vertex -15.3705 5.23639 0
      vertex -15.9258 6.6508 1.28334
      vertex -15.9258 6.6508 0
    endloop
  endfacet
  facet normal -0.930832 -0.365447 0
    outer loop
      vertex -15.9258 6.6508 1.28334
      vertex -15.3705 5.23639 0
      vertex -15.3705 5.23639 1.28334
    endloop
  endfacet
  facet normal -0.197721 0.980258 0
    outer loop
      vertex -13.0476 7.23134 0
      vertex -15.9258 6.6508 1.28334
      vertex -13.0476 7.23134 1.28334
    endloop
  endfacet
  facet normal -0.197721 0.980258 0
    outer loop
      vertex -15.9258 6.6508 1.28334
      vertex -13.0476 7.23134 0
      vertex -15.9258 6.6508 0
    endloop
  endfacet
  facet normal 0.750676 0.66067 0
    outer loop
      vertex -10.8008 4.67845 1.28334
      vertex -13.0476 7.23134 0
      vertex -13.0476 7.23134 1.28334
    endloop
  endfacet
  facet normal 0.750676 0.66067 0
    outer loop
      vertex -13.0476 7.23134 0
      vertex -10.8008 4.67845 1.28334
      vertex -10.8008 4.67845 0
    endloop
  endfacet
  facet normal -0.781871 0.62344 0
    outer loop
      vertex -10.8008 4.67845 0
      vertex -9.40337 6.431 1.28334
      vertex -9.40337 6.431 0
    endloop
  endfacet
  facet normal -0.781871 0.62344 0
    outer loop
      vertex -9.40337 6.431 1.28334
      vertex -10.8008 4.67845 0
      vertex -10.8008 4.67845 1.28334
    endloop
  endfacet
  facet normal -0.866037 -0.499981 0
    outer loop
      vertex -9.40337 6.431 0
      vertex -10.0116 7.48454 1.28334
      vertex -10.0116 7.48454 0
    endloop
  endfacet
  facet normal -0.866037 -0.499981 0
    outer loop
      vertex -10.0116 7.48454 1.28334
      vertex -9.40337 6.431 0
      vertex -9.40337 6.431 1.28334
    endloop
  endfacet
  facet normal -0.950279 0.311399 0
    outer loop
      vertex -10.0116 7.48454 0
      vertex -8.87416 10.9556 1.28334
      vertex -8.87416 10.9556 0
    endloop
  endfacet
  facet normal -0.950279 0.311399 0
    outer loop
      vertex -8.87416 10.9556 1.28334
      vertex -10.0116 7.48454 0
      vertex -10.0116 7.48454 1.28334
    endloop
  endfacet
  facet normal -0.859181 -0.511672 0
    outer loop
      vertex -8.87416 10.9556 0
      vertex -9.54628 12.0842 1.28334
      vertex -9.54628 12.0842 0
    endloop
  endfacet
  facet normal -0.859181 -0.511672 0
    outer loop
      vertex -9.54628 12.0842 1.28334
      vertex -8.87416 10.9556 0
      vertex -8.87416 10.9556 1.28334
    endloop
  endfacet
  facet normal -0.328837 -0.944387 0
    outer loop
      vertex -12.2921 13.0403 0
      vertex -9.54628 12.0842 1.28334
      vertex -12.2921 13.0403 1.28334
    endloop
  endfacet
  facet normal -0.328837 -0.944387 -0
    outer loop
      vertex -9.54628 12.0842 1.28334
      vertex -12.2921 13.0403 0
      vertex -9.54628 12.0842 0
    endloop
  endfacet
  facet normal 0.090034 -0.995939 0
    outer loop
      vertex -14.8695 12.8073 0
      vertex -12.2921 13.0403 1.28334
      vertex -14.8695 12.8073 1.28334
    endloop
  endfacet
  facet normal 0.090034 -0.995939 0
    outer loop
      vertex -12.2921 13.0403 1.28334
      vertex -14.8695 12.8073 0
      vertex -12.2921 13.0403 0
    endloop
  endfacet
  facet normal -0.703625 0.710571 0
    outer loop
      vertex -13.0587 14.6004 0
      vertex -14.8695 12.8073 1.28334
      vertex -13.0587 14.6004 1.28334
    endloop
  endfacet
  facet normal -0.703625 0.710571 0
    outer loop
      vertex -14.8695 12.8073 1.28334
      vertex -13.0587 14.6004 0
      vertex -14.8695 12.8073 0
    endloop
  endfacet
  facet normal -0.0201395 0.999797 0
    outer loop
      vertex -8.74964 14.6872 0
      vertex -13.0587 14.6004 1.28334
      vertex -8.74964 14.6872 1.28334
    endloop
  endfacet
  facet normal -0.0201395 0.999797 0
    outer loop
      vertex -13.0587 14.6004 1.28334
      vertex -8.74964 14.6872 0
      vertex -13.0587 14.6004 0
    endloop
  endfacet
  facet normal 0.56927 0.82215 -0
    outer loop
      vertex -6.30458 12.9942 0
      vertex -8.74964 14.6872 1.28334
      vertex -6.30458 12.9942 1.28334
    endloop
  endfacet
  facet normal 0.56927 0.82215 0
    outer loop
      vertex -8.74964 14.6872 1.28334
      vertex -6.30458 12.9942 0
      vertex -8.74964 14.6872 0
    endloop
  endfacet
  facet normal -0.604245 0.796799 0
    outer loop
      vertex -4.77954 14.1507 0
      vertex -6.30458 12.9942 1.28334
      vertex -4.77954 14.1507 1.28334
    endloop
  endfacet
  facet normal -0.604245 0.796799 0
    outer loop
      vertex -6.30458 12.9942 1.28334
      vertex -4.77954 14.1507 0
      vertex -6.30458 12.9942 0
    endloop
  endfacet
  facet normal -0.233018 0.972472 0
    outer loop
      vertex -2.38277 14.725 0
      vertex -4.77954 14.1507 1.28334
      vertex -2.38277 14.725 1.28334
    endloop
  endfacet
  facet normal -0.233018 0.972472 0
    outer loop
      vertex -4.77954 14.1507 1.28334
      vertex -2.38277 14.725 0
      vertex -4.77954 14.1507 0
    endloop
  endfacet
  facet normal -0.964638 -0.26358 0
    outer loop
      vertex -2.38277 14.725 0
      vertex -3.65985 19.3988 1.28334
      vertex -3.65985 19.3988 0
    endloop
  endfacet
  facet normal -0.964638 -0.26358 0
    outer loop
      vertex -3.65985 19.3988 1.28334
      vertex -2.38277 14.725 0
      vertex -2.38277 14.725 1.28334
    endloop
  endfacet
  facet normal -0.262696 0.964879 0
    outer loop
      vertex -1.19821 20.069 0
      vertex -3.65985 19.3988 1.28334
      vertex -1.19821 20.069 1.28334
    endloop
  endfacet
  facet normal -0.262696 0.964879 0
    outer loop
      vertex -3.65985 19.3988 1.28334
      vertex -1.19821 20.069 0
      vertex -3.65985 19.3988 0
    endloop
  endfacet
  facet normal 0.999408 -0.0344155 0
    outer loop
      vertex -1.30138 17.073 1.28334
      vertex -1.19821 20.069 0
      vertex -1.19821 20.069 1.28334
    endloop
  endfacet
  facet normal 0.999408 -0.0344155 0
    outer loop
      vertex -1.19821 20.069 0
      vertex -1.30138 17.073 1.28334
      vertex -1.30138 17.073 0
    endloop
  endfacet
  facet normal 0.90611 0.423041 0
    outer loop
      vertex -0.295169 14.9178 1.28334
      vertex -1.30138 17.073 0
      vertex -1.30138 17.073 1.28334
    endloop
  endfacet
  facet normal 0.90611 0.423041 0
    outer loop
      vertex -1.30138 17.073 0
      vertex -0.295169 14.9178 1.28334
      vertex -0.295169 14.9178 0
    endloop
  endfacet
  facet normal 0.820103 -0.572215 0
    outer loop
      vertex -1.61354 13.0283 1.28334
      vertex -0.295169 14.9178 0
      vertex -0.295169 14.9178 1.28334
    endloop
  endfacet
  facet normal 0.820103 -0.572215 0
    outer loop
      vertex -0.295169 14.9178 0
      vertex -1.61354 13.0283 1.28334
      vertex -1.61354 13.0283 0
    endloop
  endfacet
  facet normal 0.469906 -0.882716 0
    outer loop
      vertex -4.63942 11.4175 0
      vertex -1.61354 13.0283 1.28334
      vertex -4.63942 11.4175 1.28334
    endloop
  endfacet
  facet normal 0.469906 -0.882716 0
    outer loop
      vertex -1.61354 13.0283 1.28334
      vertex -4.63942 11.4175 0
      vertex -1.61354 13.0283 0
    endloop
  endfacet
  facet normal 0.704256 0.709946 -0
    outer loop
      vertex -2.1841 8.98186 0
      vertex -4.63942 11.4175 1.28334
      vertex -2.1841 8.98186 1.28334
    endloop
  endfacet
  facet normal 0.704256 0.709946 0
    outer loop
      vertex -4.63942 11.4175 1.28334
      vertex -2.1841 8.98186 0
      vertex -4.63942 11.4175 0
    endloop
  endfacet
  facet normal 0 0 -1
    outer loop
      vertex -9.40337 6.431 0
      vertex -8.65742 7.97802 0
      vertex -9.03228 6.16761 0
    endloop
  endfacet
  facet normal 0 0 -1
    outer loop
      vertex -7.02179 -2.1307 0
      vertex -6.12619 -3.47552 0
      vertex -6.5448 -3.81624 0
    endloop
  endfacet
  facet normal 0 0 -1
    outer loop
      vertex -7.03288 -1.62474 0
      vertex -6.12619 -3.47552 0
      vertex -6.96687 -2.08599 0
    endloop
  endfacet
  facet normal 0 0 -1
    outer loop
      vertex -6.12619 -3.47552 0
      vertex -7.02179 -2.1307 0
      vertex -6.96687 -2.08599 0
    endloop
  endfacet
  facet normal 0 0 -1
    outer loop
      vertex -6.5448 -3.81624 0
      vertex -7.26835 -2.10113 0
      vertex -7.02179 -2.1307 0
    endloop
  endfacet
  facet normal 0 0 -1
    outer loop
      vertex -7.78783 -2.05356 0
      vertex -7.29268 -1.96774 0
      vertex -7.26835 -2.10113 0
    endloop
  endfacet
  facet normal -0 0 -1
    outer loop
      vertex -7.29268 -1.96774 0
      vertex -7.78783 -2.05356 0
      vertex -7.63019 -0.721257 0
    endloop
  endfacet
  facet normal 0 0 -1
    outer loop
      vertex -8.42391 -3.59088 0
      vertex -7.26835 -2.10113 0
      vertex -6.5448 -3.81624 0
    endloop
  endfacet
  facet normal -0 0 -1
    outer loop
      vertex -7.26835 -2.10113 0
      vertex -8.42391 -3.59088 0
      vertex -7.78783 -2.05356 0
    endloop
  endfacet
  facet normal 0 0 -1
    outer loop
      vertex -7.78783 -2.05356 0
      vertex -8.42391 -3.59088 0
      vertex -8.60939 -2.57428 0
    endloop
  endfacet
  facet normal 0 0 -1
    outer loop
      vertex 2.68819 1.93537 0
      vertex 4.46583 2.04355 0
      vertex 4.08441 0.981111 0
    endloop
  endfacet
  facet normal 0 0 -1
    outer loop
      vertex 4.46583 2.04355 0
      vertex 2.8625 2.42091 0
      vertex 2.95759 5.3272 0
    endloop
  endfacet
  facet normal -0 0 -1
    outer loop
      vertex 4.46583 2.04355 0
      vertex 2.68819 1.93537 0
      vertex 2.8625 2.42091 0
    endloop
  endfacet
  facet normal 0 0 -1
    outer loop
      vertex -2.86102e-06 0.199998 0
      vertex 2.68819 1.93537 0
      vertex 4.08441 0.981111 0
    endloop
  endfacet
  facet normal 0 0 -1
    outer loop
      vertex 2.68819 1.93537 0
      vertex -2.86102e-06 0.199998 0
      vertex 0.821588 1.5784 0
    endloop
  endfacet
  facet normal 0 0 -1
    outer loop
      vertex -2.86102e-06 0.199998 0
      vertex -0.48614 3.0932 0
      vertex 0.821588 1.5784 0
    endloop
  endfacet
  facet normal 0 0 -1
    outer loop
      vertex -2.86151 3.51463 0
      vertex -0.48614 3.0932 0
      vertex -2.86102e-06 0.199998 0
    endloop
  endfacet
  facet normal 0 0 -1
    outer loop
      vertex -0.48614 3.0932 0
      vertex -2.86151 3.51463 0
      vertex -2.10043 4.43387 0
    endloop
  endfacet
  facet normal 0 0 -1
    outer loop
      vertex -2.86151 3.51463 0
      vertex -3.20937 5.01078 0
      vertex -2.10043 4.43387 0
    endloop
  endfacet
  facet normal 0 0 -1
    outer loop
      vertex -2.86151 3.51463 0
      vertex -3.91865 4.8825 0
      vertex -3.20937 5.01078 0
    endloop
  endfacet
  facet normal 0 0 -1
    outer loop
      vertex -4.34313 3.24667 0
      vertex -3.91865 4.8825 0
      vertex -2.86151 3.51463 0
    endloop
  endfacet
  facet normal 0 0 -1
    outer loop
      vertex -4.34313 3.24667 0
      vertex -4.95365 3.39258 0
      vertex -3.91865 4.8825 0
    endloop
  endfacet
  facet normal -0 0 -1
    outer loop
      vertex -4.34313 3.24667 0
      vertex -5.88561 2.08536 0
      vertex -4.95365 3.39258 0
    endloop
  endfacet
  facet normal 0 0 -1
    outer loop
      vertex -6.62934 0.0399027 0
      vertex -5.88561 2.08536 0
      vertex -4.34313 3.24667 0
    endloop
  endfacet
  facet normal 0 0 -1
    outer loop
      vertex -6.12619 -3.47552 0
      vertex -7.03288 -1.62474 0
      vertex -6.62934 0.0399027 0
    endloop
  endfacet
  facet normal -0 0 -1
    outer loop
      vertex -6.62934 0.0399027 0
      vertex -7.22656 0.00811704 0
      vertex -5.88561 2.08536 0
    endloop
  endfacet
  facet normal 0 0 -1
    outer loop
      vertex -7.22656 0.00811704 0
      vertex -6.62934 0.0399027 0
      vertex -7.03288 -1.62474 0
    endloop
  endfacet
  facet normal 0 0 -1
    outer loop
      vertex 2.17323 3.92156 0
      vertex 2.95759 5.3272 0
      vertex 2.8625 2.42091 0
    endloop
  endfacet
  facet normal 0 0 -1
    outer loop
      vertex 0.644674 4.54347 0
      vertex 2.95759 5.3272 0
      vertex 2.17323 3.92156 0
    endloop
  endfacet
  facet normal 0 0 -1
    outer loop
      vertex 0.644674 4.54347 0
      vertex -0.387118 6.68805 0
      vertex 2.95759 5.3272 0
    endloop
  endfacet
  facet normal 0 0 -1
    outer loop
      vertex -0.387118 6.68805 0
      vertex -0.886691 7.65161 0
      vertex -0.557712 7.57095 0
    endloop
  endfacet
  facet normal 0 0 -1
    outer loop
      vertex -1.09176 5.7275 0
      vertex -0.387118 6.68805 0
      vertex 0.644674 4.54347 0
    endloop
  endfacet
  facet normal 0 0 -1
    outer loop
      vertex -2.02481 6.52997 0
      vertex -0.387118 6.68805 0
      vertex -1.09176 5.7275 0
    endloop
  endfacet
  facet normal -0 0 -1
    outer loop
      vertex -0.387118 6.68805 0
      vertex -2.02481 6.52997 0
      vertex -0.886691 7.65161 0
    endloop
  endfacet
  facet normal 0 0 -1
    outer loop
      vertex 4.27552 10.1877 0
      vertex 3.41661 9.31059 0
      vertex 3.44491 9.64167 0
    endloop
  endfacet
  facet normal 0 0 -1
    outer loop
      vertex 2.38569 8.0116 0
      vertex 3.41661 9.31059 0
      vertex 4.05986 7.66443 0
    endloop
  endfacet
  facet normal -0 0 -1
    outer loop
      vertex 3.41661 9.31059 0
      vertex 2.38569 8.0116 0
      vertex 3.19695 9.35615 0
    endloop
  endfacet
  facet normal 0 0 -1
    outer loop
      vertex 2.35157 8.93886 0
      vertex 3.19695 9.35615 0
      vertex 2.38569 8.0116 0
    endloop
  endfacet
  facet normal 0 0 -1
    outer loop
      vertex 2.35059 9.76299 0
      vertex 3.19695 9.35615 0
      vertex 2.35157 8.93886 0
    endloop
  endfacet
  facet normal 0 0 -1
    outer loop
      vertex 3.19695 9.35615 0
      vertex 2.35059 9.76299 0
      vertex 3.19247 9.47781 0
    endloop
  endfacet
  facet normal 0 0 -1
    outer loop
      vertex 2.35157 8.93886 0
      vertex 1.83887 9.94929 0
      vertex 2.35059 9.76299 0
    endloop
  endfacet
  facet normal 0 0 -1
    outer loop
      vertex 0.882824 9.47359 0
      vertex 1.83887 9.94929 0
      vertex 2.35157 8.93886 0
    endloop
  endfacet
  facet normal -0 0 -1
    outer loop
      vertex 1.83887 9.94929 0
      vertex 0.882824 9.47359 0
      vertex 1.19176 10.3266 0
    endloop
  endfacet
  facet normal 0 0 -1
    outer loop
      vertex 0.882824 9.47359 0
      vertex 0.496368 9.84683 0
      vertex 1.19176 10.3266 0
    endloop
  endfacet
  facet normal -0 0 -1
    outer loop
      vertex 0.882824 9.47359 0
      vertex -0.336302 8.85885 0
      vertex 0.496368 9.84683 0
    endloop
  endfacet
  facet normal 0 0 -1
    outer loop
      vertex -0.557712 7.57095 0
      vertex -0.336302 8.85885 0
      vertex 0.882824 9.47359 0
    endloop
  endfacet
  facet normal 0 0 -1
    outer loop
      vertex -0.960626 8.03426 0
      vertex -0.557712 7.57095 0
      vertex -0.886691 7.65161 0
    endloop
  endfacet
  facet normal 0 0 -1
    outer loop
      vertex -0.557712 7.57095 0
      vertex -0.960626 8.03426 0
      vertex -0.336302 8.85885 0
    endloop
  endfacet
  facet normal 0 0 -1
    outer loop
      vertex 3.41661 9.31059 0
      vertex 4.27552 10.1877 0
      vertex 4.05986 7.66443 0
    endloop
  endfacet
  facet normal 0 0 -1
    outer loop
      vertex 3.23832 9.72823 0
      vertex 4.27552 10.1877 0
      vertex 3.44491 9.64167 0
    endloop
  endfacet
  facet normal 0 0 -1
    outer loop
      vertex 3.23832 9.72823 0
      vertex 2.70098 10.8474 0
      vertex 4.27552 10.1877 0
    endloop
  endfacet
  facet normal 0 0 -1
    outer loop
      vertex 2.47233 10.4279 0
      vertex 2.70098 10.8474 0
      vertex 3.23832 9.72823 0
    endloop
  endfacet
  facet normal 0 0 -1
    outer loop
      vertex 1.88164 10.8478 0
      vertex 2.70098 10.8474 0
      vertex 2.47233 10.4279 0
    endloop
  endfacet
  facet normal 0 0 -1
    outer loop
      vertex 1.31435 11.4363 0
      vertex 2.70098 10.8474 0
      vertex 1.88164 10.8478 0
    endloop
  endfacet
  facet normal 0 0 -1
    outer loop
      vertex 1.31435 11.4363 0
      vertex 1.20591 12.3982 0
      vertex 2.70098 10.8474 0
    endloop
  endfacet
  facet normal 0 0 -1
    outer loop
      vertex 0.628073 11.039 0
      vertex 1.20591 12.3982 0
      vertex 1.31435 11.4363 0
    endloop
  endfacet
  facet normal 0 0 -1
    outer loop
      vertex -0.753844 9.64638 0
      vertex 1.20591 12.3982 0
      vertex 0.628073 11.039 0
    endloop
  endfacet
  facet normal 0 0 -1
    outer loop
      vertex -2.1841 8.98186 0
      vertex -0.753844 9.64638 0
      vertex -1.6655 8.64574 0
    endloop
  endfacet
  facet normal -0 0 -1
    outer loop
      vertex -0.753844 9.64638 0
      vertex -2.1841 8.98186 0
      vertex 1.20591 12.3982 0
    endloop
  endfacet
  facet normal 0 0 -1
    outer loop
      vertex -2.88507 7.62808 0
      vertex -2.1841 8.98186 0
      vertex -1.6655 8.64574 0
    endloop
  endfacet
  facet normal 0 0 -1
    outer loop
      vertex -4.30999 9.59539 0
      vertex -2.1841 8.98186 0
      vertex -2.88507 7.62808 0
    endloop
  endfacet
  facet normal 0 0 -1
    outer loop
      vertex -4.30999 9.59539 0
      vertex -4.63942 11.4175 0
      vertex -2.1841 8.98186 0
    endloop
  endfacet
  facet normal 0 0 -1
    outer loop
      vertex -5.48541 10.7614 0
      vertex -4.63942 11.4175 0
      vertex -4.30999 9.59539 0
    endloop
  endfacet
  facet normal -0 0 -1
    outer loop
      vertex -4.63942 11.4175 0
      vertex -5.48541 10.7614 0
      vertex -5.05792 11.966 0
    endloop
  endfacet
  facet normal 0 0 -1
    outer loop
      vertex -2.38277 14.725 0
      vertex -2.02624 15.5792 0
      vertex -1.89172 14.4795 0
    endloop
  endfacet
  facet normal -0 0 -1
    outer loop
      vertex -2.02624 15.5792 0
      vertex -2.38277 14.725 0
      vertex -2.21144 16.842 0
    endloop
  endfacet
  facet normal -0 0 -1
    outer loop
      vertex -2.21144 16.842 0
      vertex -2.38277 14.725 0
      vertex -2.379 17.4552 0
    endloop
  endfacet
  facet normal 0 0 -1
    outer loop
      vertex -3.15534 13.7775 0
      vertex -2.38277 14.725 0
      vertex -1.89172 14.4795 0
    endloop
  endfacet
  facet normal 0 0 -1
    outer loop
      vertex -4.77954 14.1507 0
      vertex -3.15534 13.7775 0
      vertex -3.9082 13.5971 0
    endloop
  endfacet
  facet normal 0 0 -1
    outer loop
      vertex -3.15534 13.7775 0
      vertex -4.77954 14.1507 0
      vertex -2.38277 14.725 0
    endloop
  endfacet
  facet normal 0 0 -1
    outer loop
      vertex -5.11108 13.003 0
      vertex -4.77954 14.1507 0
      vertex -3.9082 13.5971 0
    endloop
  endfacet
  facet normal 0 0 -1
    outer loop
      vertex -6.30458 12.9942 0
      vertex -5.11108 13.003 0
      vertex -5.68974 12.5642 0
    endloop
  endfacet
  facet normal -0 0 -1
    outer loop
      vertex -5.11108 13.003 0
      vertex -6.30458 12.9942 0
      vertex -4.77954 14.1507 0
    endloop
  endfacet
  facet normal 0 0 -1
    outer loop
      vertex -7.1685 12.4283 0
      vertex -6.30458 12.9942 0
      vertex -5.68974 12.5642 0
    endloop
  endfacet
  facet normal 0 0 -1
    outer loop
      vertex -8.50481 13.3104 0
      vertex -6.30458 12.9942 0
      vertex -7.1685 12.4283 0
    endloop
  endfacet
  facet normal 0 0 -1
    outer loop
      vertex -8.50481 13.3104 0
      vertex -8.74964 14.6872 0
      vertex -6.30458 12.9942 0
    endloop
  endfacet
  facet normal 0 0 -1
    outer loop
      vertex -9.07554 13.7056 0
      vertex -8.74964 14.6872 0
      vertex -8.50481 13.3104 0
    endloop
  endfacet
  facet normal 0 0 -1
    outer loop
      vertex -12.2107 13.9336 0
      vertex -8.74964 14.6872 0
      vertex -9.07554 13.7056 0
    endloop
  endfacet
  facet normal 0 0 -1
    outer loop
      vertex -13.0587 14.6004 0
      vertex -12.2107 13.9336 0
      vertex -12.7761 13.9222 0
    endloop
  endfacet
  facet normal 0 0 -1
    outer loop
      vertex -12.2107 13.9336 0
      vertex -13.0587 14.6004 0
      vertex -8.74964 14.6872 0
    endloop
  endfacet
  facet normal 0 0 -1
    outer loop
      vertex -13.0587 14.6004 0
      vertex -12.7761 13.9222 0
      vertex -13.0137 13.687 0
    endloop
  endfacet
  facet normal 0 0 -1
    outer loop
      vertex -1.30138 17.073 0
      vertex -2.06955 17.15 0
      vertex -2.05602 17.5431 0
    endloop
  endfacet
  facet normal 0 0 -1
    outer loop
      vertex -1.63897 15.615 0
      vertex -0.295169 14.9178 0
      vertex -1.31553 14.5327 0
    endloop
  endfacet
  facet normal 0 0 -1
    outer loop
      vertex -1.61354 13.0283 0
      vertex -1.31553 14.5327 0
      vertex -0.295169 14.9178 0
    endloop
  endfacet
  facet normal 0 0 -1
    outer loop
      vertex -1.61354 13.0283 0
      vertex -1.67941 14.0112 0
      vertex -1.31553 14.5327 0
    endloop
  endfacet
  facet normal 0 0 -1
    outer loop
      vertex -1.61354 13.0283 0
      vertex -2.91372 13.2446 0
      vertex -1.67941 14.0112 0
    endloop
  endfacet
  facet normal -0 0 -1
    outer loop
      vertex -1.61354 13.0283 0
      vertex -3.86419 12.7386 0
      vertex -2.91372 13.2446 0
    endloop
  endfacet
  facet normal 0 0 -1
    outer loop
      vertex -4.63942 11.4175 0
      vertex -3.86419 12.7386 0
      vertex -1.61354 13.0283 0
    endloop
  endfacet
  facet normal 0 0 -1
    outer loop
      vertex -3.86419 12.7386 0
      vertex -4.63942 11.4175 0
      vertex -5.05792 11.966 0
    endloop
  endfacet
  facet normal 0 0 -1
    outer loop
      vertex -0.295169 14.9178 0
      vertex -1.63897 15.615 0
      vertex -1.30138 17.073 0
    endloop
  endfacet
  facet normal 0 0 -1
    outer loop
      vertex -1.82564 16.0148 0
      vertex -1.30138 17.073 0
      vertex -1.63897 15.615 0
    endloop
  endfacet
  facet normal 0 0 -1
    outer loop
      vertex -2.06955 17.15 0
      vertex -1.30138 17.073 0
      vertex -1.82564 16.0148 0
    endloop
  endfacet
  facet normal 0 0 -1
    outer loop
      vertex -1.30138 17.073 0
      vertex -2.05602 17.5431 0
      vertex -1.19821 20.069 0
    endloop
  endfacet
  facet normal 0 0 -1
    outer loop
      vertex -3.65985 19.3988 0
      vertex -2.05602 17.5431 0
      vertex -2.379 17.4552 0
    endloop
  endfacet
  facet normal 0 0 -1
    outer loop
      vertex -2.05602 17.5431 0
      vertex -3.65985 19.3988 0
      vertex -1.19821 20.069 0
    endloop
  endfacet
  facet normal 0 0 -1
    outer loop
      vertex -3.65985 19.3988 0
      vertex -2.379 17.4552 0
      vertex -2.38277 14.725 0
    endloop
  endfacet
  facet normal -0 0 -1
    outer loop
      vertex -7.18489 -1.89942 0
      vertex -7.29268 -1.96774 0
      vertex -7.63019 -0.721257 0
    endloop
  endfacet
  facet normal 0 0 -1
    outer loop
      vertex -8.46604 -0.0265484 0
      vertex -7.63019 -0.721257 0
      vertex -7.78783 -2.05356 0
    endloop
  endfacet
  facet normal 0 0 -1
    outer loop
      vertex -7.63019 -0.721257 0
      vertex -8.46604 -0.0265484 0
      vertex -7.86648 -0.0150349 0
    endloop
  endfacet
  facet normal 0 0 -1
    outer loop
      vertex -7.11534 1.3494 0
      vertex -6.31011 3.88968 0
      vertex -5.75548 3.65469 0
    endloop
  endfacet
  facet normal 0 0 -1
    outer loop
      vertex -8.46604 -0.0265484 0
      vertex -7.11534 1.3494 0
      vertex -7.86648 -0.0150349 0
    endloop
  endfacet
  facet normal -0 0 -1
    outer loop
      vertex -7.11534 1.3494 0
      vertex -8.46604 -0.0265484 0
      vertex -6.31011 3.88968 0
    endloop
  endfacet
  facet normal 0 0 -1
    outer loop
      vertex -6.31011 3.88968 0
      vertex -4.8603 5.19032 0
      vertex -5.75548 3.65469 0
    endloop
  endfacet
  facet normal -0 0 -1
    outer loop
      vertex -4.8603 5.19032 0
      vertex -6.31011 3.88968 0
      vertex -5.3242 6.9313 0
    endloop
  endfacet
  facet normal 0 0 -1
    outer loop
      vertex -7.27915 7.52638 0
      vertex -5.3242 6.9313 0
      vertex -6.31011 3.88968 0
    endloop
  endfacet
  facet normal 0 0 -1
    outer loop
      vertex -5.3242 6.9313 0
      vertex -7.27915 7.52638 0
      vertex -6.74911 8.89862 0
    endloop
  endfacet
  facet normal 0 0 -1
    outer loop
      vertex -7.27915 7.52638 0
      vertex -7.87645 8.38074 0
      vertex -6.74911 8.89862 0
    endloop
  endfacet
  facet normal -0 0 -1
    outer loop
      vertex -7.27915 7.52638 0
      vertex -8.22627 6.58324 0
      vertex -7.87645 8.38074 0
    endloop
  endfacet
  facet normal 0 0 -1
    outer loop
      vertex -8.77928 4.28566 0
      vertex -8.22627 6.58324 0
      vertex -7.27915 7.52638 0
    endloop
  endfacet
  facet normal 0 0 -1
    outer loop
      vertex -8.77928 4.28566 0
      vertex -8.79548 5.35359 0
      vertex -8.22627 6.58324 0
    endloop
  endfacet
  facet normal 0 0 -1
    outer loop
      vertex -8.77928 4.28566 0
      vertex -9.38903 4.47261 0
      vertex -8.79548 5.35359 0
    endloop
  endfacet
  facet normal -0 0 -1
    outer loop
      vertex -8.77928 4.28566 0
      vertex -10.0979 3.8625 0
      vertex -9.38903 4.47261 0
    endloop
  endfacet
  facet normal 0 0 -1
    outer loop
      vertex -10.8138 2.5345 0
      vertex -10.0979 3.8625 0
      vertex -8.77928 4.28566 0
    endloop
  endfacet
  facet normal 0 0 -1
    outer loop
      vertex -10.8138 2.5345 0
      vertex -11.2028 3.34304 0
      vertex -10.0979 3.8625 0
    endloop
  endfacet
  facet normal 0 0 -1
    outer loop
      vertex -11.7744 2.53851 0
      vertex -11.2028 3.34304 0
      vertex -10.8138 2.5345 0
    endloop
  endfacet
  facet normal -0 0 -1
    outer loop
      vertex -11.2028 3.34304 0
      vertex -11.7744 2.53851 0
      vertex -11.4679 3.34415 0
    endloop
  endfacet
  facet normal 0 0 -1
    outer loop
      vertex -11.7744 2.53851 0
      vertex -12.1453 4.08857 0
      vertex -11.4679 3.34415 0
    endloop
  endfacet
  facet normal 0 0 -1
    outer loop
      vertex -14.2285 5.23563 0
      vertex -12.1453 4.08857 0
      vertex -11.7744 2.53851 0
    endloop
  endfacet
  facet normal 0 0 -1
    outer loop
      vertex -12.1453 4.08857 0
      vertex -14.2285 5.23563 0
      vertex -13.7279 6.10971 0
    endloop
  endfacet
  facet normal -0 0 -1
    outer loop
      vertex -13.8778 6.10981 0
      vertex -14.2285 5.23563 0
      vertex -13.9506 6.29539 0
    endloop
  endfacet
  facet normal -0 0 -1
    outer loop
      vertex -13.7279 6.10971 0
      vertex -14.2285 5.23563 0
      vertex -13.8778 6.10981 0
    endloop
  endfacet
  facet normal 0 0 -1
    outer loop
      vertex -8.88104 8.36535 0
      vertex -8.87416 10.9556 0
      vertex -8.46286 9.64148 0
    endloop
  endfacet
  facet normal 0 0 -1
    outer loop
      vertex -10.0116 7.48454 0
      vertex -8.65742 7.97802 0
      vertex -9.40337 6.431 0
    endloop
  endfacet
  facet normal -0 0 -1
    outer loop
      vertex -8.65742 7.97802 0
      vertex -10.0116 7.48454 0
      vertex -8.88104 8.36535 0
    endloop
  endfacet
  facet normal -0 0 -1
    outer loop
      vertex -8.88104 8.36535 0
      vertex -10.0116 7.48454 0
      vertex -8.87416 10.9556 0
    endloop
  endfacet
  facet normal 0 0 -1
    outer loop
      vertex -8.87416 10.9556 0
      vertex -8.14349 11.6548 0
      vertex -7.80066 11.0491 0
    endloop
  endfacet
  facet normal 0 0 -1
    outer loop
      vertex -8.87416 10.9556 0
      vertex -7.80066 11.0491 0
      vertex -8.46286 9.64148 0
    endloop
  endfacet
  facet normal -0 0 -1
    outer loop
      vertex -8.14349 11.6548 0
      vertex -8.87416 10.9556 0
      vertex -8.39852 12.0831 0
    endloop
  endfacet
  facet normal 0 0 -1
    outer loop
      vertex -9.54628 12.0842 0
      vertex -8.39852 12.0831 0
      vertex -8.87416 10.9556 0
    endloop
  endfacet
  facet normal 0 0 -1
    outer loop
      vertex -8.39852 12.0831 0
      vertex -9.54628 12.0842 0
      vertex -9.26149 13.098 0
    endloop
  endfacet
  facet normal 0 0 -1
    outer loop
      vertex -9.54628 12.0842 0
      vertex -9.90242 13.3211 0
      vertex -9.26149 13.098 0
    endloop
  endfacet
  facet normal 0 0 -1
    outer loop
      vertex -12.2921 13.0403 0
      vertex -9.90242 13.3211 0
      vertex -9.54628 12.0842 0
    endloop
  endfacet
  facet normal 0 0 -1
    outer loop
      vertex -12.2921 13.0403 0
      vertex -12.6755 13.7175 0
      vertex -9.90242 13.3211 0
    endloop
  endfacet
  facet normal 0 0 -1
    outer loop
      vertex -12.2921 13.0403 0
      vertex -13.0137 13.687 0
      vertex -12.6755 13.7175 0
    endloop
  endfacet
  facet normal -0 0 -1
    outer loop
      vertex -13.0137 13.687 0
      vertex -14.8695 12.8073 0
      vertex -13.0587 14.6004 0
    endloop
  endfacet
  facet normal 0 0 -1
    outer loop
      vertex -14.8695 12.8073 0
      vertex -13.0137 13.687 0
      vertex -12.2921 13.0403 0
    endloop
  endfacet
  facet normal 0 0 -1
    outer loop
      vertex -9.60647 5.22006 0
      vertex -9.40337 6.431 0
      vertex -9.03228 6.16761 0
    endloop
  endfacet
  facet normal 0 0 -1
    outer loop
      vertex -10.8008 4.67845 0
      vertex -9.60647 5.22006 0
      vertex -10.0933 4.60946 0
    endloop
  endfacet
  facet normal -0 0 -1
    outer loop
      vertex -9.60647 5.22006 0
      vertex -10.8008 4.67845 0
      vertex -9.40337 6.431 0
    endloop
  endfacet
  facet normal 0 0 -1
    outer loop
      vertex -11.1992 3.93478 0
      vertex -10.8008 4.67845 0
      vertex -10.0933 4.60946 0
    endloop
  endfacet
  facet normal 0 0 -1
    outer loop
      vertex -13.2782 6.0366 0
      vertex -10.8008 4.67845 0
      vertex -11.1992 3.93478 0
    endloop
  endfacet
  facet normal 0 0 -1
    outer loop
      vertex -10.8008 4.67845 0
      vertex -13.2782 6.0366 0
      vertex -13.0476 7.23134 0
    endloop
  endfacet
  facet normal 0 0 -1
    outer loop
      vertex -13.573 6.37156 0
      vertex -13.0476 7.23134 0
      vertex -13.2782 6.0366 0
    endloop
  endfacet
  facet normal 0 0 -1
    outer loop
      vertex -13.9506 6.29539 0
      vertex -13.0476 7.23134 0
      vertex -13.573 6.37156 0
    endloop
  endfacet
  facet normal 0 0 -1
    outer loop
      vertex -15.3705 5.23639 0
      vertex -13.9506 6.29539 0
      vertex -14.2285 5.23563 0
    endloop
  endfacet
  facet normal 0 0 -1
    outer loop
      vertex -15.9258 6.6508 0
      vertex -13.9506 6.29539 0
      vertex -15.3705 5.23639 0
    endloop
  endfacet
  facet normal 0 0 -1
    outer loop
      vertex -13.9506 6.29539 0
      vertex -15.9258 6.6508 0
      vertex -13.0476 7.23134 0
    endloop
  endfacet
  facet normal 0.369443 0.429554 0.824012
    outer loop
      vertex -0.387118 6.68805 1.28334
      vertex -3.52883 6.3848 2.85
      vertex -1.57668 5.06647 2.662
    endloop
  endfacet
  facet normal 0.434294 -0.440678 0.785615
    outer loop
      vertex -1.26882 8.38864 2.72467
      vertex -3.52883 6.3848 2.85
      vertex -0.387118 6.68805 1.28334
    endloop
  endfacet
  facet normal 0.540375 -0.545889 -0.640313
    outer loop
      vertex -12.7761 13.9222 0
      vertex -12.7334 13.8198 0.123335
      vertex -13.0137 13.687 0
    endloop
  endfacet
  facet normal -0.0678215 0.752041 -0.655618
    outer loop
      vertex -12.7334 13.8198 0.123335
      vertex -12.6755 13.7175 0
      vertex -13.0137 13.687 0
    endloop
  endfacet
  facet normal 0.201736 0.579554 -0.789569
    outer loop
      vertex -9.17478 13.4066 0.248671
      vertex -9.26149 13.098 0
      vertex -9.90242 13.3211 0
    endloop
  endfacet
  facet normal 0.112971 0.790254 -0.602276
    outer loop
      vertex -9.90242 13.3211 0
      vertex -12.7334 13.8198 0.123335
      vertex -9.17478 13.4066 0.248671
    endloop
  endfacet
  facet normal 0.112952 0.790175 -0.602383
    outer loop
      vertex -12.7334 13.8198 0.123335
      vertex -9.90242 13.3211 0
      vertex -12.6755 13.7175 0
    endloop
  endfacet
  facet normal -0.0457964 -0.629732 -0.775461
    outer loop
      vertex -9.17478 13.4066 0.248671
      vertex -12.2107 13.9336 0
      vertex -9.07554 13.7056 0
    endloop
  endfacet
  facet normal -0.0458248 -0.62985 -0.775364
    outer loop
      vertex -12.2107 13.9336 0
      vertex -9.17478 13.4066 0.248671
      vertex -12.7334 13.8198 0.123335
    endloop
  endfacet
  facet normal 0.0154578 -0.766655 -0.641874
    outer loop
      vertex -12.2107 13.9336 0
      vertex -12.7334 13.8198 0.123335
      vertex -12.7761 13.9222 0
    endloop
  endfacet
  facet normal -0.359514 -0.544635 -0.757709
    outer loop
      vertex -7.69673 12.0823 0.499334
      vertex -8.50481 13.3104 0
      vertex -7.1685 12.4283 0
    endloop
  endfacet
  facet normal -0.359453 -0.544613 -0.757753
    outer loop
      vertex -8.50481 13.3104 0
      vertex -7.69673 12.0823 0.499334
      vertex -9.17478 13.4066 0.248671
    endloop
  endfacet
  facet normal -0.361644 -0.522271 -0.7723
    outer loop
      vertex -9.07554 13.7056 0
      vertex -8.50481 13.3104 0
      vertex -9.17478 13.4066 0.248671
    endloop
  endfacet
  facet normal 0.548229 0.326442 -0.769987
    outer loop
      vertex -7.69673 12.0823 0.499334
      vertex -8.14349 11.6548 0
      vertex -8.39852 12.0831 0
    endloop
  endfacet
  facet normal 0.52026 0.442394 -0.730491
    outer loop
      vertex -8.39852 12.0831 0
      vertex -9.17478 13.4066 0.248671
      vertex -7.69673 12.0823 0.499334
    endloop
  endfacet
  facet normal 0.520298 0.44241 -0.730454
    outer loop
      vertex -9.17478 13.4066 0.248671
      vertex -8.39852 12.0831 0
      vertex -9.26149 13.098 0
    endloop
  endfacet
  facet normal 0.678811 -0.222442 -0.699811
    outer loop
      vertex -8.46286 9.64148 0
      vertex -8.22373 8.87746 0.474806
      vertex -8.88104 8.36535 0
    endloop
  endfacet
  facet normal 0.596494 -0.280617 -0.751963
    outer loop
      vertex -8.46286 9.64148 0
      vertex -6.97954 11.1206 0.624666
      vertex -8.22373 8.87746 0.474806
    endloop
  endfacet
  facet normal 0.596492 -0.280613 -0.751966
    outer loop
      vertex -6.97954 11.1206 0.624666
      vertex -8.46286 9.64148 0
      vertex -7.80066 11.0491 0
    endloop
  endfacet
  facet normal 0.557039 0.315284 -0.768312
    outer loop
      vertex -7.80066 11.0491 0
      vertex -7.69673 12.0823 0.499334
      vertex -6.97954 11.1206 0.624666
    endloop
  endfacet
  facet normal 0.557035 0.315285 -0.768314
    outer loop
      vertex -7.69673 12.0823 0.499334
      vertex -7.80066 11.0491 0
      vertex -8.14349 11.6548 0
    endloop
  endfacet
  facet normal 0.149856 -0.0170757 -0.98856
    outer loop
      vertex -6.97954 11.1206 0.624666
      vertex -6.26235 10.1588 0.749998
      vertex -8.22373 8.87746 0.474806
    endloop
  endfacet
  facet normal -0.723173 0.14074 -0.676175
    outer loop
      vertex -8.22627 6.58324 0
      vertex -8.22373 8.87746 0.474806
      vertex -7.87645 8.38074 0
    endloop
  endfacet
  facet normal -0.723175 0.14074 -0.676173
    outer loop
      vertex -8.22373 8.87746 0.474806
      vertex -8.22627 6.58324 0
      vertex -8.80538 6.00656 0.499334
    endloop
  endfacet
  facet normal 0.431867 0.249333 -0.866789
    outer loop
      vertex -8.22373 8.87746 0.474806
      vertex -8.65742 7.97802 0
      vertex -8.88104 8.36535 0
    endloop
  endfacet
  facet normal 0.872209 -0.180595 -0.454573
    outer loop
      vertex -8.80538 6.00656 0.499334
      vertex -8.65742 7.97802 0
      vertex -8.22373 8.87746 0.474806
    endloop
  endfacet
  facet normal 0.872204 -0.180597 -0.454582
    outer loop
      vertex -8.65742 7.97802 0
      vertex -8.80538 6.00656 0.499334
      vertex -9.03228 6.16761 0
    endloop
  endfacet
  facet normal 0.631545 -0.50353 -0.589583
    outer loop
      vertex -9.60647 5.22006 0
      vertex -9.71506 4.57257 0.436666
      vertex -10.0933 4.60946 0
    endloop
  endfacet
  facet normal 0.747538 -0.452988 -0.485787
    outer loop
      vertex -8.80538 6.00656 0.499334
      vertex -9.60647 5.22006 0
      vertex -9.03228 6.16761 0
    endloop
  endfacet
  facet normal 0.747537 -0.452985 -0.485791
    outer loop
      vertex -9.60647 5.22006 0
      vertex -8.80538 6.00656 0.499334
      vertex -9.71506 4.57257 0.436666
    endloop
  endfacet
  facet normal -0.664385 0.447622 -0.59852
    outer loop
      vertex -8.79548 5.35359 0
      vertex -9.71506 4.57257 0.436666
      vertex -8.80538 6.00656 0.499334
    endloop
  endfacet
  facet normal -0.664385 0.447622 -0.598521
    outer loop
      vertex -9.71506 4.57257 0.436666
      vertex -8.79548 5.35359 0
      vertex -9.38903 4.47261 0
    endloop
  endfacet
  facet normal -0.789312 0.365376 -0.493444
    outer loop
      vertex -8.22627 6.58324 0
      vertex -8.79548 5.35359 0
      vertex -8.80538 6.00656 0.499334
    endloop
  endfacet
  facet normal -0.544305 0.632413 -0.551167
    outer loop
      vertex -9.71506 4.57257 0.436666
      vertex -9.38903 4.47261 0
      vertex -10.0979 3.8625 0
    endloop
  endfacet
  facet normal -0.286393 0.609163 -0.739527
    outer loop
      vertex -11.3511 3.65128 0.311335
      vertex -10.0979 3.8625 0
      vertex -11.2028 3.34304 0
    endloop
  endfacet
  facet normal -0.286393 0.609182 -0.739511
    outer loop
      vertex -10.0979 3.8625 0
      vertex -11.3511 3.65128 0.311335
      vertex -9.71506 4.57257 0.436666
    endloop
  endfacet
  facet normal 0.00297843 0.711336 -0.702846
    outer loop
      vertex -11.3511 3.65128 0.311335
      vertex -11.2028 3.34304 0
      vertex -11.4679 3.34415 0
    endloop
  endfacet
  facet normal 0.461451 -0.756386 -0.46362
    outer loop
      vertex -10.0933 4.60946 0
      vertex -11.3511 3.65128 0.311335
      vertex -11.1992 3.93478 0
    endloop
  endfacet
  facet normal 0.461455 -0.756388 -0.463612
    outer loop
      vertex -11.3511 3.65128 0.311335
      vertex -10.0933 4.60946 0
      vertex -9.71506 4.57257 0.436666
    endloop
  endfacet
  facet normal -0.485764 -0.427524 -0.762402
    outer loop
      vertex -13.573 6.37156 0
      vertex -13.2782 6.0366 0
      vertex -13.6523 6.24172 0.123335
    endloop
  endfacet
  facet normal -0.50594 -0.500447 -0.702551
    outer loop
      vertex -11.3511 3.65128 0.311335
      vertex -13.2782 6.0366 0
      vertex -11.1992 3.93478 0
    endloop
  endfacet
  facet normal -0.506014 -0.500495 -0.702463
    outer loop
      vertex -13.2782 6.0366 0
      vertex -11.3511 3.65128 0.311335
      vertex -13.6523 6.24172 0.123335
    endloop
  endfacet
  facet normal -0.420248 0.15087 -0.894779
    outer loop
      vertex 2.8625 2.42091 0
      vertex 2.68819 1.93537 0
      vertex 1.51307 2.73851 0.687334
    endloop
  endfacet
  facet normal -0.483531 -0.222093 -0.846683
    outer loop
      vertex 2.17323 3.92156 0
      vertex 2.8625 2.42091 0
      vertex 1.51307 2.73851 0.687334
    endloop
  endfacet
  facet normal -0.105709 0.552754 -0.826613
    outer loop
      vertex 1.51307 2.73851 0.687334
      vertex 2.68819 1.93537 0
      vertex 0.821588 1.5784 0
    endloop
  endfacet
  facet normal 0.360808 0.434446 -0.825272
    outer loop
      vertex -0.48614 3.0932 0
      vertex -1.57668 5.06647 0.562002
      vertex 1.51307 2.73851 0.687334
    endloop
  endfacet
  facet normal 0.360808 0.434447 -0.825272
    outer loop
      vertex -1.57668 5.06647 0.562002
      vertex -0.48614 3.0932 0
      vertex -2.10043 4.43387 0
    endloop
  endfacet
  facet normal 0.357773 0.308866 -0.881249
    outer loop
      vertex 1.51307 2.73851 0.687334
      vertex 0.821588 1.5784 0
      vertex -0.48614 3.0932 0
    endloop
  endfacet
  facet normal -0.171532 -0.421598 -0.890411
    outer loop
      vertex 2.17323 3.92156 0
      vertex 1.51307 2.73851 0.687334
      vertex 0.644674 4.54347 0
    endloop
  endfacet
  facet normal -0.318668 -0.467344 -0.824646
    outer loop
      vertex -1.57668 5.06647 0.562002
      vertex 0.644674 4.54347 0
      vertex 1.51307 2.73851 0.687334
    endloop
  endfacet
  facet normal -0.318667 -0.46734 -0.824648
    outer loop
      vertex 0.644674 4.54347 0
      vertex -1.57668 5.06647 0.562002
      vertex -1.09176 5.7275 0
    endloop
  endfacet
  facet normal -0.918784 -0.177526 -0.352592
    outer loop
      vertex -0.960626 8.03426 0
      vertex -0.886691 7.65161 0
      vertex -1.26882 8.38864 0.624666
    endloop
  endfacet
  facet normal -0.416515 -0.301681 -0.857615
    outer loop
      vertex -3.52883 6.3848 0.749998
      vertex -4.30999 9.59539 0
      vertex -2.88507 7.62808 0
    endloop
  endfacet
  facet normal -0.416512 -0.301681 -0.857617
    outer loop
      vertex -4.30999 9.59539 0
      vertex -3.52883 6.3848 0.749998
      vertex -6.26235 10.1588 0.749998
    endloop
  endfacet
  facet normal -0.4294 -0.432865 -0.792618
    outer loop
      vertex -5.48541 10.7614 0
      vertex -4.30999 9.59539 0
      vertex -6.26235 10.1588 0.749998
    endloop
  endfacet
  facet normal 0.519233 -0.622253 -0.585832
    outer loop
      vertex -2.88507 7.62808 0
      vertex -1.26882 8.38864 0.624666
      vertex -3.52883 6.3848 0.749998
    endloop
  endfacet
  facet normal 0.519233 -0.622252 -0.585833
    outer loop
      vertex -1.26882 8.38864 0.624666
      vertex -2.88507 7.62808 0
      vertex -1.6655 8.64574 0
    endloop
  endfacet
  facet normal -0.260017 0.566014 -0.782317
    outer loop
      vertex -8.22373 8.87746 0.474806
      vertex -6.74911 8.89862 0
      vertex -7.87645 8.38074 0
    endloop
  endfacet
  facet normal -0.260014 0.566026 -0.782309
    outer loop
      vertex -6.74911 8.89862 0
      vertex -8.22373 8.87746 0.474806
      vertex -6.26235 10.1588 0.749998
    endloop
  endfacet
  facet normal 0.446911 0.323699 -0.83396
    outer loop
      vertex -5.3242 6.9313 0
      vertex -6.26235 10.1588 0.749998
      vertex -3.52883 6.3848 0.749998
    endloop
  endfacet
  facet normal 0.446921 0.3237 -0.833954
    outer loop
      vertex -6.26235 10.1588 0.749998
      vertex -5.3242 6.9313 0
      vertex -6.74911 8.89862 0
    endloop
  endfacet
  facet normal 0.41136 0.109611 -0.904858
    outer loop
      vertex -3.52883 6.3848 0.749998
      vertex -4.8603 5.19032 0
      vertex -5.3242 6.9313 0
    endloop
  endfacet
  facet normal 0.26465 0.508711 -0.819252
    outer loop
      vertex -3.20937 5.01078 0
      vertex -1.57668 5.06647 0.562002
      vertex -2.10043 4.43387 0
    endloop
  endfacet
  facet normal 0.264649 0.508713 -0.819251
    outer loop
      vertex -1.57668 5.06647 0.562002
      vertex -3.20937 5.01078 0
      vertex -3.52883 6.3848 0.749998
    endloop
  endfacet
  facet normal -0.0836269 0.462386 -0.882726
    outer loop
      vertex -3.52883 6.3848 0.749998
      vertex -3.20937 5.01078 0
      vertex -3.91865 4.8825 0
    endloop
  endfacet
  facet normal 0.592337 -0.539657 -0.598253
    outer loop
      vertex -1.26882 8.38864 0.624666
      vertex -0.753844 9.64638 0
      vertex 0.230419 10.1037 0.562002
    endloop
  endfacet
  facet normal 0.592331 -0.539657 -0.598259
    outer loop
      vertex -0.753844 9.64638 0
      vertex -1.26882 8.38864 0.624666
      vertex -1.6655 8.64574 0
    endloop
  endfacet
  facet normal 0.589708 -0.585176 -0.556609
    outer loop
      vertex 0.628073 11.039 0
      vertex 0.230419 10.1037 0.562002
      vertex -0.753844 9.64638 0
    endloop
  endfacet
  facet normal 0.339381 -0.586231 -0.735631
    outer loop
      vertex 1.38066 10.8481 0.499334
      vertex 0.628073 11.039 0
      vertex 1.31435 11.4363 0
    endloop
  endfacet
  facet normal 0.339349 -0.586286 -0.735603
    outer loop
      vertex 0.628073 11.039 0
      vertex 1.38066 10.8481 0.499334
      vertex 0.230419 10.1037 0.562002
    endloop
  endfacet
  facet normal -0.642161 0.486201 -0.592653
    outer loop
      vertex -0.336302 8.85885 0
      vertex -0.960626 8.03426 0
      vertex -1.26882 8.38864 0.624666
    endloop
  endfacet
  facet normal -0.63924 0.538752 -0.548743
    outer loop
      vertex -0.336302 8.85885 0
      vertex 0.230419 10.1037 0.562002
      vertex 0.496368 9.84683 0
    endloop
  endfacet
  facet normal -0.639243 0.538752 -0.54874
    outer loop
      vertex 0.230419 10.1037 0.562002
      vertex -0.336302 8.85885 0
      vertex -1.26882 8.38864 0.624666
    endloop
  endfacet
  facet normal 0.688051 0.0253368 -0.725219
    outer loop
      vertex 3.31947 9.55921 0.123335
      vertex 3.19695 9.35615 0
      vertex 3.19247 9.47781 0
    endloop
  endfacet
  facet normal 0.0980519 0.472741 -0.875729
    outer loop
      vertex 3.31947 9.55921 0.123335
      vertex 3.41661 9.31059 0
      vertex 3.19695 9.35615 0
    endloop
  endfacet
  facet normal -0.720049 0.0615482 -0.691188
    outer loop
      vertex 3.44491 9.64167 0
      vertex 3.41661 9.31059 0
      vertex 3.31947 9.55921 0.123335
    endloop
  endfacet
  facet normal -0.271937 -0.649023 -0.710506
    outer loop
      vertex 3.44491 9.64167 0
      vertex 3.31947 9.55921 0.123335
      vertex 3.23832 9.72823 0
    endloop
  endfacet
  facet normal -0.586398 -0.641982 -0.49396
    outer loop
      vertex 2.47233 10.4279 0
      vertex 3.31947 9.55921 0.123335
      vertex 2.35006 10.2036 0.436666
    endloop
  endfacet
  facet normal -0.586401 -0.641984 -0.493954
    outer loop
      vertex 3.31947 9.55921 0.123335
      vertex 2.47233 10.4279 0
      vertex 3.23832 9.72823 0
    endloop
  endfacet
  facet normal -0.501032 -0.704771 -0.50226
    outer loop
      vertex 1.88164 10.8478 0
      vertex 2.35006 10.2036 0.436666
      vertex 1.38066 10.8481 0.499334
    endloop
  endfacet
  facet normal -0.500995 -0.70477 -0.502298
    outer loop
      vertex 2.35006 10.2036 0.436666
      vertex 1.88164 10.8478 0
      vertex 2.47233 10.4279 0
    endloop
  endfacet
  facet normal -0.583742 -0.562704 -0.585328
    outer loop
      vertex 1.88164 10.8478 0
      vertex 1.38066 10.8481 0.499334
      vertex 1.31435 11.4363 0
    endloop
  endfacet
  facet normal -0.769332 0.273021 -0.577571
    outer loop
      vertex -5.48541 10.7614 0
      vertex -5.3138 12.3013 0.499334
      vertex -5.05792 11.966 0
    endloop
  endfacet
  facet normal -0.769318 0.273025 -0.577587
    outer loop
      vertex -5.3138 12.3013 0.499334
      vertex -5.48541 10.7614 0
      vertex -6.26235 10.1588 0.749998
    endloop
  endfacet
  facet normal 0.0787111 -0.856453 -0.51019
    outer loop
      vertex -7.1685 12.4283 0
      vertex -5.3138 12.3013 0.499334
      vertex -7.69673 12.0823 0.499334
    endloop
  endfacet
  facet normal 0.0787094 -0.856456 -0.510184
    outer loop
      vertex -5.3138 12.3013 0.499334
      vertex -7.1685 12.4283 0
      vertex -5.68974 12.5642 0
    endloop
  endfacet
  facet normal 0.01112 -0.121052 -0.992584
    outer loop
      vertex -6.97954 11.1206 0.624666
      vertex -5.3138 12.3013 0.499334
      vertex -6.26235 10.1588 0.749998
    endloop
  endfacet
  facet normal 0.0111258 -0.12106 -0.992583
    outer loop
      vertex -5.3138 12.3013 0.499334
      vertex -6.97954 11.1206 0.624666
      vertex -7.69673 12.0823 0.499334
    endloop
  endfacet
  facet normal -0.335322 0.629869 -0.700588
    outer loop
      vertex -3.50916 13.3436 0.374002
      vertex -2.91372 13.2446 0
      vertex -3.86419 12.7386 0
    endloop
  endfacet
  facet normal -0.415599 0.642134 -0.64416
    outer loop
      vertex -5.3138 12.3013 0.499334
      vertex -3.86419 12.7386 0
      vertex -5.05792 11.966 0
    endloop
  endfacet
  facet normal -0.4156 0.642109 -0.644184
    outer loop
      vertex -3.86419 12.7386 0
      vertex -5.3138 12.3013 0.499334
      vertex -3.50916 13.3436 0.374002
    endloop
  endfacet
  facet normal -0.361109 0.581425 -0.729072
    outer loop
      vertex -2.91372 13.2446 0
      vertex -1.70452 14.386 0.311335
      vertex -1.67941 14.0112 0
    endloop
  endfacet
  facet normal -0.361196 0.581491 -0.728976
    outer loop
      vertex -1.70452 14.386 0.311335
      vertex -2.91372 13.2446 0
      vertex -3.50916 13.3436 0.374002
    endloop
  endfacet
  facet normal -0.654497 0.456679 -0.602559
    outer loop
      vertex -1.31553 14.5327 0
      vertex -1.67941 14.0112 0
      vertex -1.70452 14.386 0.311335
    endloop
  endfacet
  facet normal -0.575238 -0.171907 -0.799719
    outer loop
      vertex -1.70452 14.386 0.311335
      vertex -1.63897 15.615 0
      vertex -1.31553 14.5327 0
    endloop
  endfacet
  facet normal -0.575207 -0.171914 -0.799739
    outer loop
      vertex -1.63897 15.615 0
      vertex -1.70452 14.386 0.311335
      vertex -1.94504 15.7738 0.186003
    endloop
  endfacet
  facet normal 0.172537 -0.720044 -0.672136
    outer loop
      vertex -3.15534 13.7775 0
      vertex -3.50916 13.3436 0.374002
      vertex -3.9082 13.5971 0
    endloop
  endfacet
  facet normal 0.424703 -0.764422 -0.485063
    outer loop
      vertex -3.15534 13.7775 0
      vertex -1.70452 14.386 0.311335
      vertex -3.50916 13.3436 0.374002
    endloop
  endfacet
  facet normal 0.424708 -0.764486 -0.484959
    outer loop
      vertex -1.70452 14.386 0.311335
      vertex -3.15534 13.7775 0
      vertex -1.89172 14.4795 0
    endloop
  endfacet
  facet normal 0.454854 -0.599831 -0.658263
    outer loop
      vertex -5.11108 13.003 0
      vertex -5.3138 12.3013 0.499334
      vertex -5.68974 12.5642 0
    endloop
  endfacet
  facet normal 0.300833 -0.6091 -0.733823
    outer loop
      vertex -3.50916 13.3436 0.374002
      vertex -5.11108 13.003 0
      vertex -3.9082 13.5971 0
    endloop
  endfacet
  facet normal 0.300833 -0.609102 -0.733821
    outer loop
      vertex -5.11108 13.003 0
      vertex -3.50916 13.3436 0.374002
      vertex -5.3138 12.3013 0.499334
    endloop
  endfacet
  facet normal 0.854483 0.125317 -0.504137
    outer loop
      vertex -1.94504 15.7738 0.186003
      vertex -2.21144 16.842 0
      vertex -2.18556 17.1617 0.123335
    endloop
  endfacet
  facet normal 0.854484 0.125317 -0.504136
    outer loop
      vertex -2.21144 16.842 0
      vertex -1.94504 15.7738 0.186003
      vertex -2.02624 15.5792 0
    endloop
  endfacet
  facet normal 0.722128 0.197325 -0.663019
    outer loop
      vertex -2.18556 17.1617 0.123335
      vertex -2.21144 16.842 0
      vertex -2.379 17.4552 0
    endloop
  endfacet
  facet normal 0.865919 0.105926 -0.48884
    outer loop
      vertex -1.70452 14.386 0.311335
      vertex -2.02624 15.5792 0
      vertex -1.94504 15.7738 0.186003
    endloop
  endfacet
  facet normal 0.865915 0.105922 -0.488848
    outer loop
      vertex -2.02624 15.5792 0
      vertex -1.70452 14.386 0.311335
      vertex -1.89172 14.4795 0
    endloop
  endfacet
  facet normal -0.600546 -0.2804 -0.748813
    outer loop
      vertex -1.82564 16.0148 0
      vertex -1.63897 15.615 0
      vertex -1.94504 15.7738 0.186003
    endloop
  endfacet
  facet normal -0.72682 -0.156165 -0.668839
    outer loop
      vertex -1.82564 16.0148 0
      vertex -2.18556 17.1617 0.123335
      vertex -2.06955 17.15 0
    endloop
  endfacet
  facet normal -0.726793 -0.156153 -0.668871
    outer loop
      vertex -2.18556 17.1617 0.123335
      vertex -1.82564 16.0148 0
      vertex -1.94504 15.7738 0.186003
    endloop
  endfacet
  facet normal -0.726993 0.0250222 -0.686189
    outer loop
      vertex -2.05602 17.5431 0
      vertex -2.06955 17.15 0
      vertex -2.18556 17.1617 0.123335
    endloop
  endfacet
  facet normal 0.0909669 -0.334249 -0.938085
    outer loop
      vertex -2.05602 17.5431 0
      vertex -2.18556 17.1617 0.123335
      vertex -2.379 17.4552 0
    endloop
  endfacet
  facet normal 0.51855 0.406039 -0.752488
    outer loop
      vertex -12.1453 4.08857 0
      vertex -13.6523 6.24172 0.123335
      vertex -11.3511 3.65128 0.311335
    endloop
  endfacet
  facet normal 0.518566 0.406049 -0.752472
    outer loop
      vertex -13.6523 6.24172 0.123335
      vertex -12.1453 4.08857 0
      vertex -13.7279 6.10971 0
    endloop
  endfacet
  facet normal 0.538525 0.490042 -0.685456
    outer loop
      vertex -11.3511 3.65128 0.311335
      vertex -11.4679 3.34415 0
      vertex -12.1453 4.08857 0
    endloop
  endfacet
  facet normal 0.146626 -0.726874 -0.670936
    outer loop
      vertex -13.573 6.37156 0
      vertex -13.6523 6.24172 0.123335
      vertex -13.9506 6.29539 0
    endloop
  endfacet
  facet normal 0.000455337 0.682551 -0.730838
    outer loop
      vertex -13.6523 6.24172 0.123335
      vertex -13.7279 6.10971 0
      vertex -13.8778 6.10981 0
    endloop
  endfacet
  facet normal 0.401383 0.157456 -0.902274
    outer loop
      vertex -13.6523 6.24172 0.123335
      vertex -13.8778 6.10981 0
      vertex -13.9506 6.29539 0
    endloop
  endfacet
  facet normal 0.739078 -0.406872 -0.53686
    outer loop
      vertex -7.11534 1.3494 0
      vertex -7.5459 -0.00887871 0.436666
      vertex -7.86648 -0.0150349 0
    endloop
  endfacet
  facet normal 0.69529 -0.410142 -0.590216
    outer loop
      vertex -5.3738 3.49298 0.562002
      vertex -7.11534 1.3494 0
      vertex -5.75548 3.65469 0
    endloop
  endfacet
  facet normal 0.695292 -0.410145 -0.590213
    outer loop
      vertex -7.11534 1.3494 0
      vertex -5.3738 3.49298 0.562002
      vertex -7.5459 -0.00887871 0.436666
    endloop
  endfacet
  facet normal 0.697236 -0.406447 -0.590476
    outer loop
      vertex -5.3738 3.49298 0.562002
      vertex -4.8603 5.19032 0
      vertex -3.52883 6.3848 0.749998
    endloop
  endfacet
  facet normal 0.697237 -0.406447 -0.590475
    outer loop
      vertex -4.8603 5.19032 0
      vertex -5.3738 3.49298 0.562002
      vertex -5.75548 3.65469 0
    endloop
  endfacet
  facet normal -0.663165 0.472792 -0.580242
    outer loop
      vertex -5.3738 3.49298 0.562002
      vertex -4.95365 3.39258 0
      vertex -5.88561 2.08536 0
    endloop
  endfacet
  facet normal -0.667792 0.463892 -0.582116
    outer loop
      vertex -3.91865 4.8825 0
      vertex -5.3738 3.49298 0.562002
      vertex -3.52883 6.3848 0.749998
    endloop
  endfacet
  facet normal -0.667793 0.463894 -0.582112
    outer loop
      vertex -5.3738 3.49298 0.562002
      vertex -3.91865 4.8825 0
      vertex -4.95365 3.39258 0
    endloop
  endfacet
  facet normal -0.722549 0.466436 -0.510256
    outer loop
      vertex -7.5459 -0.00887871 0.436666
      vertex -5.88561 2.08536 0
      vertex -7.22656 0.00811704 0
    endloop
  endfacet
  facet normal -0.722551 0.46644 -0.510249
    outer loop
      vertex -5.88561 2.08536 0
      vertex -7.5459 -0.00887871 0.436666
      vertex -5.3738 3.49298 0.562002
    endloop
  endfacet
  facet normal -0.801756 -0.0950996 -0.590037
    outer loop
      vertex -7.03288 -1.62474 0
      vertex -7.5459 -0.00887871 0.436666
      vertex -7.22656 0.00811704 0
    endloop
  endfacet
  facet normal -0.801749 -0.0950948 -0.590047
    outer loop
      vertex -7.5459 -0.00887871 0.436666
      vertex -7.03288 -1.62474 0
      vertex -7.09383 -1.87614 0.123335
    endloop
  endfacet
  facet normal -0.285836 0.35111 -0.891639
    outer loop
      vertex -6.96687 -2.08599 0
      vertex -7.02179 -2.1307 0
      vertex -7.09383 -1.87614 0.123335
    endloop
  endfacet
  facet normal -0.781319 -0.111815 -0.614034
    outer loop
      vertex -7.03288 -1.62474 0
      vertex -6.96687 -2.08599 0
      vertex -7.09383 -1.87614 0.123335
    endloop
  endfacet
  facet normal 0.776648 0.259853 -0.573842
    outer loop
      vertex -7.5459 -0.00887871 0.436666
      vertex -7.63019 -0.721257 0
      vertex -7.86648 -0.0150349 0
    endloop
  endfacet
  facet normal 0.745693 0.281844 -0.603743
    outer loop
      vertex -7.09383 -1.87614 0.123335
      vertex -7.63019 -0.721257 0
      vertex -7.5459 -0.00887871 0.436666
    endloop
  endfacet
  facet normal 0.745688 0.281841 -0.603751
    outer loop
      vertex -7.63019 -0.721257 0
      vertex -7.09383 -1.87614 0.123335
      vertex -7.18489 -1.89942 0
    endloop
  endfacet
  facet normal 0.521055 -0.822081 -0.229531
    outer loop
      vertex -7.18489 -1.89942 0
      vertex -7.09383 -1.87614 0.123335
      vertex -7.29268 -1.96774 0
    endloop
  endfacet
  facet normal 0.494597 0.0902133 -0.864428
    outer loop
      vertex -7.09383 -1.87614 0.123335
      vertex -7.26835 -2.10113 0
      vertex -7.29268 -1.96774 0
    endloop
  endfacet
  facet normal 0.0536876 0.447657 -0.892592
    outer loop
      vertex -7.09383 -1.87614 0.123335
      vertex -7.02179 -2.1307 0
      vertex -7.26835 -2.10113 0
    endloop
  endfacet
  facet normal -0.477267 0.691764 -0.541921
    outer loop
      vertex 0.496368 9.84683 0
      vertex 1.38066 10.8481 0.499334
      vertex 1.19176 10.3266 0
    endloop
  endfacet
  facet normal -0.477207 0.691748 -0.541995
    outer loop
      vertex 1.38066 10.8481 0.499334
      vertex 0.496368 9.84683 0
      vertex 0.230419 10.1037 0.562002
    endloop
  endfacet
  facet normal 0.248303 0.682026 -0.687885
    outer loop
      vertex 2.35006 10.2036 0.436666
      vertex 2.35059 9.76299 0
      vertex 1.83887 9.94929 0
    endloop
  endfacet
  facet normal 0.23199 0.684857 -0.690761
    outer loop
      vertex 2.35006 10.2036 0.436666
      vertex 3.19247 9.47781 0
      vertex 2.35059 9.76299 0
    endloop
  endfacet
  facet normal 0.231938 0.684826 -0.69081
    outer loop
      vertex 3.19247 9.47781 0
      vertex 2.35006 10.2036 0.436666
      vertex 3.31947 9.55921 0.123335
    endloop
  endfacet
  facet normal 0.340046 0.5832 -0.73773
    outer loop
      vertex 1.83887 9.94929 0
      vertex 1.38066 10.8481 0.499334
      vertex 2.35006 10.2036 0.436666
    endloop
  endfacet
  facet normal 0.340046 0.5832 -0.73773
    outer loop
      vertex 1.38066 10.8481 0.499334
      vertex 1.83887 9.94929 0
      vertex 1.19176 10.3266 0
    endloop
  endfacet
  facet normal -0.369439 -0.429555 -0.824013
    outer loop
      vertex -1.57668 5.06647 0.562002
      vertex -2.02481 6.52997 0
      vertex -1.09176 5.7275 0
    endloop
  endfacet
  facet normal -0.369442 -0.429555 -0.824011
    outer loop
      vertex -2.02481 6.52997 0
      vertex -1.57668 5.06647 0.562002
      vertex -3.52883 6.3848 0.749998
    endloop
  endfacet
  facet normal -0.434295 0.440676 -0.785616
    outer loop
      vertex -2.02481 6.52997 0
      vertex -1.26882 8.38864 0.624666
      vertex -0.886691 7.65161 0
    endloop
  endfacet
  facet normal -0.434293 0.440675 -0.785618
    outer loop
      vertex -1.26882 8.38864 0.624666
      vertex -2.02481 6.52997 0
      vertex -3.52883 6.3848 0.749998
    endloop
  endfacet
endsolid OpenSCAD_Model
