solid OpenSCAD_Model
  facet normal 0.540476 -0.545811 -0.640294
    outer loop
      vertex -13.0587 14.6004 1.28334
      vertex -12.7334 13.8198 2.22334
      vertex -14.8695 12.8073 1.28334
    endloop
  endfacet
  facet normal -0.0679876 0.752066 -0.655572
    outer loop
      vertex -12.7334 13.8198 2.22334
      vertex -12.2921 13.0403 1.28334
      vertex -14.8695 12.8073 1.28334
    endloop
  endfacet
  facet normal 0.201766 0.579452 -0.789636
    outer loop
      vertex -12.2921 13.0403 1.28334
      vertex -9.17478 13.4066 2.34867
      vertex -9.54628 12.0842 1.28334
    endloop
  endfacet
  facet normal 0.112969 0.790249 -0.602283
    outer loop
      vertex -9.17478 13.4066 2.34867
      vertex -12.2921 13.0403 1.28334
      vertex -12.7334 13.8198 2.22334
    endloop
  endfacet
  facet normal -0.0458228 -0.629827 -0.775382
    outer loop
      vertex -12.7334 13.8198 2.22334
      vertex -8.74964 14.6872 1.28334
      vertex -9.17478 13.4066 2.34867
    endloop
  endfacet
  facet normal 0.015442 -0.766596 -0.641944
    outer loop
      vertex -8.74964 14.6872 1.28334
      vertex -12.7334 13.8198 2.22334
      vertex -13.0587 14.6004 1.28334
    endloop
  endfacet
  facet normal -0.359495 -0.544649 -0.757708
    outer loop
      vertex -9.17478 13.4066 2.34867
      vertex -6.30458 12.9942 1.28334
      vertex -7.69673 12.0823 2.59933
    endloop
  endfacet
  facet normal -0.361681 -0.522346 -0.772231
    outer loop
      vertex -6.30458 12.9942 1.28334
      vertex -9.17478 13.4066 2.34867
      vertex -8.74964 14.6872 1.28334
    endloop
  endfacet
  facet normal 0.548201 0.326473 -0.769994
    outer loop
      vertex -9.54628 12.0842 1.28334
      vertex -7.69673 12.0823 2.59933
      vertex -8.87416 10.9556 1.28334
    endloop
  endfacet
  facet normal 0.520237 0.442364 -0.730525
    outer loop
      vertex -7.69673 12.0823 2.59933
      vertex -9.54628 12.0842 1.28334
      vertex -9.17478 13.4066 2.34867
    endloop
  endfacet
  facet normal 0.678812 -0.222441 -0.69981
    outer loop
      vertex -8.87416 10.9556 1.28334
      vertex -8.22373 8.87746 2.57481
      vertex -10.0116 7.48454 1.28334
    endloop
  endfacet
  facet normal 0.596494 -0.280617 -0.751964
    outer loop
      vertex -8.87416 10.9556 1.28334
      vertex -6.97954 11.1206 2.72467
      vertex -8.22373 8.87746 2.57481
    endloop
  endfacet
  facet normal 0.557038 0.315277 -0.768316
    outer loop
      vertex -6.97954 11.1206 2.72467
      vertex -8.87416 10.9556 1.28334
      vertex -7.69673 12.0823 2.59933
    endloop
  endfacet
  facet normal 0.149854 -0.0170748 -0.988561
    outer loop
      vertex -8.22373 8.87746 2.57481
      vertex -6.97954 11.1206 2.72467
      vertex -6.26235 10.1588 2.85
    endloop
  endfacet
  facet normal -0.723178 0.140742 -0.67617
    outer loop
      vertex -7.27915 7.52638 1.28334
      vertex -8.80538 6.00656 2.59933
      vertex -8.22373 8.87746 2.57481
    endloop
  endfacet
  facet normal 0.431874 0.249329 -0.866787
    outer loop
      vertex -8.22373 8.87746 2.57481
      vertex -9.40337 6.431 1.28334
      vertex -10.0116 7.48454 1.28334
    endloop
  endfacet
  facet normal 0.872206 -0.180593 -0.454579
    outer loop
      vertex -9.40337 6.431 1.28334
      vertex -8.22373 8.87746 2.57481
      vertex -8.80538 6.00656 2.59933
    endloop
  endfacet
  facet normal 0.63151 -0.503547 -0.589606
    outer loop
      vertex -9.40337 6.431 1.28334
      vertex -9.71506 4.57257 2.53667
      vertex -10.8008 4.67845 1.28334
    endloop
  endfacet
  facet normal 0.747539 -0.452989 -0.485784
    outer loop
      vertex -9.71506 4.57257 2.53667
      vertex -9.40337 6.431 1.28334
      vertex -8.80538 6.00656 2.59933
    endloop
  endfacet
  facet normal -0.664386 0.447619 -0.598522
    outer loop
      vertex -8.80538 6.00656 2.59933
      vertex -8.77928 4.28566 1.28334
      vertex -9.71506 4.57257 2.53667
    endloop
  endfacet
  facet normal -0.789312 0.365373 -0.493447
    outer loop
      vertex -7.27915 7.52638 1.28334
      vertex -8.77928 4.28566 1.28334
      vertex -8.80538 6.00656 2.59933
    endloop
  endfacet
  facet normal -0.544318 0.632396 -0.551174
    outer loop
      vertex -10.8138 2.5345 1.28334
      vertex -9.71506 4.57257 2.53667
      vertex -8.77928 4.28566 1.28334
    endloop
  endfacet
  facet normal -0.28638 0.609169 -0.739527
    outer loop
      vertex -9.71506 4.57257 2.53667
      vertex -10.8138 2.5345 1.28334
      vertex -11.3511 3.65128 2.41133
    endloop
  endfacet
  facet normal 0.00296944 0.711333 -0.702849
    outer loop
      vertex -10.8138 2.5345 1.28334
      vertex -11.7744 2.53851 1.28334
      vertex -11.3511 3.65128 2.41133
    endloop
  endfacet
  facet normal 0.46145 -0.756371 -0.463644
    outer loop
      vertex -11.3511 3.65128 2.41133
      vertex -10.8008 4.67845 1.28334
      vertex -9.71506 4.57257 2.53667
    endloop
  endfacet
  facet normal -0.485699 -0.427464 -0.762477
    outer loop
      vertex -10.8008 4.67845 1.28334
      vertex -13.6523 6.24172 2.22334
      vertex -13.0476 7.23134 1.28334
    endloop
  endfacet
  facet normal -0.505951 -0.500443 -0.702546
    outer loop
      vertex -13.6523 6.24172 2.22334
      vertex -10.8008 4.67845 1.28334
      vertex -11.3511 3.65128 2.41133
    endloop
  endfacet
  facet normal -0.420248 0.150871 -0.894779
    outer loop
      vertex 1.51307 2.73851 2.78733
      vertex 4.46583 2.04355 1.28334
      vertex 4.08441 0.981111 1.28334
    endloop
  endfacet
  facet normal -0.483531 -0.222094 -0.846683
    outer loop
      vertex 1.51307 2.73851 2.78733
      vertex 2.95759 5.3272 1.28334
      vertex 4.46583 2.04355 1.28334
    endloop
  endfacet
  facet normal -0.10571 0.552751 -0.826614
    outer loop
      vertex 1.51307 2.73851 2.78733
      vertex 4.08441 0.981111 1.28334
      vertex -3.00293e-06 0.199998 1.28334
    endloop
  endfacet
  facet normal 0.360808 0.434447 -0.825272
    outer loop
      vertex 1.51307 2.73851 2.78733
      vertex -2.86151 3.51463 1.28334
      vertex -1.57668 5.06647 2.662
    endloop
  endfacet
  facet normal 0.357773 0.308864 -0.88125
    outer loop
      vertex -2.86151 3.51463 1.28334
      vertex 1.51307 2.73851 2.78733
      vertex -3.00293e-06 0.199998 1.28334
    endloop
  endfacet
  facet normal -0.171534 -0.421597 -0.890411
    outer loop
      vertex 1.51307 2.73851 2.78733
      vertex -0.387118 6.68805 1.28334
      vertex 2.95759 5.3272 1.28334
    endloop
  endfacet
  facet normal -0.318667 -0.467342 -0.824647
    outer loop
      vertex -0.387118 6.68805 1.28334
      vertex 1.51307 2.73851 2.78733
      vertex -1.57668 5.06647 2.662
    endloop
  endfacet
  facet normal -0.918786 -0.177528 -0.352586
    outer loop
      vertex -1.26882 8.38864 2.72467
      vertex -0.557712 7.57095 1.28334
      vertex -0.387118 6.68805 1.28334
    endloop
  endfacet
  facet normal -0.416515 -0.301683 -0.857614
    outer loop
      vertex -2.1841 8.98186 1.28334
      vertex -3.52883 6.3848 2.85
      vertex -6.26235 10.1588 2.85
    endloop
  endfacet
  facet normal -0.429404 -0.432874 -0.792611
    outer loop
      vertex -6.26235 10.1588 2.85
      vertex -4.63942 11.4175 1.28334
      vertex -2.1841 8.98186 1.28334
    endloop
  endfacet
  facet normal 0.519233 -0.622253 -0.585831
    outer loop
      vertex -2.1841 8.98186 1.28334
      vertex -1.26882 8.38864 2.72467
      vertex -3.52883 6.3848 2.85
    endloop
  endfacet
  facet normal -0.26001 0.566019 -0.782315
    outer loop
      vertex -6.26235 10.1588 2.85
      vertex -7.27915 7.52638 1.28334
      vertex -8.22373 8.87746 2.57481
    endloop
  endfacet
  facet normal 0.446911 0.323699 -0.83396
    outer loop
      vertex -7.27915 7.52638 1.28334
      vertex -6.26235 10.1588 2.85
      vertex -3.52883 6.3848 2.85
    endloop
  endfacet
  facet normal 0.411361 0.109612 -0.904858
    outer loop
      vertex -3.52883 6.3848 2.85
      vertex -6.31011 3.88968 1.28334
      vertex -7.27915 7.52638 1.28334
    endloop
  endfacet
  facet normal 0.264648 0.508713 -0.819251
    outer loop
      vertex -3.52883 6.3848 2.85
      vertex -1.57668 5.06647 2.662
      vertex -2.86151 3.51463 1.28334
    endloop
  endfacet
  facet normal -0.0836254 0.462386 -0.882726
    outer loop
      vertex -2.86151 3.51463 1.28334
      vertex -4.34313 3.24667 1.28334
      vertex -3.52883 6.3848 2.85
    endloop
  endfacet
  facet normal 0.592334 -0.539656 -0.598257
    outer loop
      vertex 0.23042 10.1037 2.662
      vertex -1.26882 8.38864 2.72467
      vertex -2.1841 8.98186 1.28334
    endloop
  endfacet
  facet normal 0.589706 -0.585161 -0.556627
    outer loop
      vertex -2.1841 8.98186 1.28334
      vertex 1.20591 12.3982 1.28334
      vertex 0.23042 10.1037 2.662
    endloop
  endfacet
  facet normal 0.339335 -0.586268 -0.735623
    outer loop
      vertex 1.20591 12.3982 1.28334
      vertex 1.38066 10.8481 2.59933
      vertex 0.23042 10.1037 2.662
    endloop
  endfacet
  facet normal -0.642164 0.486198 -0.592652
    outer loop
      vertex -1.26882 8.38864 2.72467
      vertex 0.882825 9.47359 1.28334
      vertex -0.557712 7.57095 1.28334
    endloop
  endfacet
  facet normal -0.639245 0.538753 -0.548736
    outer loop
      vertex 0.882825 9.47359 1.28334
      vertex -1.26882 8.38864 2.72467
      vertex 0.23042 10.1037 2.662
    endloop
  endfacet
  facet normal 0.688071 0.0253186 -0.725202
    outer loop
      vertex 2.35157 8.93886 1.28334
      vertex 3.31947 9.55921 2.22334
      vertex 2.38569 8.0116 1.28334
    endloop
  endfacet
  facet normal 0.0980342 0.472754 -0.875724
    outer loop
      vertex 3.31947 9.55921 2.22334
      vertex 4.05986 7.66443 1.28334
      vertex 2.38569 8.0116 1.28334
    endloop
  endfacet
  facet normal -0.720042 0.0615438 -0.691196
    outer loop
      vertex 3.31947 9.55921 2.22334
      vertex 4.27553 10.1877 1.28334
      vertex 4.05986 7.66443 1.28334
    endloop
  endfacet
  facet normal -0.271927 -0.649021 -0.710512
    outer loop
      vertex 3.31947 9.55921 2.22334
      vertex 2.70099 10.8474 1.28334
      vertex 4.27553 10.1877 1.28334
    endloop
  endfacet
  facet normal -0.586398 -0.641983 -0.493959
    outer loop
      vertex 2.70099 10.8474 1.28334
      vertex 3.31947 9.55921 2.22334
      vertex 2.35006 10.2036 2.53667
    endloop
  endfacet
  facet normal -0.501019 -0.704754 -0.502296
    outer loop
      vertex 1.38066 10.8481 2.59933
      vertex 2.70099 10.8474 1.28334
      vertex 2.35006 10.2036 2.53667
    endloop
  endfacet
  facet normal -0.583707 -0.562735 -0.585333
    outer loop
      vertex 2.70099 10.8474 1.28334
      vertex 1.38066 10.8481 2.59933
      vertex 1.20591 12.3982 1.28334
    endloop
  endfacet
  facet normal -0.769315 0.273021 -0.577593
    outer loop
      vertex -6.26235 10.1588 2.85
      vertex -5.3138 12.3013 2.59933
      vertex -4.63942 11.4175 1.28334
    endloop
  endfacet
  facet normal 0.0787106 -0.856447 -0.510199
    outer loop
      vertex -5.3138 12.3013 2.59933
      vertex -7.69673 12.0823 2.59933
      vertex -6.30458 12.9942 1.28334
    endloop
  endfacet
  facet normal 0.0111265 -0.121067 -0.992582
    outer loop
      vertex -6.97954 11.1206 2.72467
      vertex -7.69673 12.0823 2.59933
      vertex -5.3138 12.3013 2.59933
    endloop
  endfacet
  facet normal 0.0111159 -0.121053 -0.992584
    outer loop
      vertex -6.97954 11.1206 2.72467
      vertex -5.3138 12.3013 2.59933
      vertex -6.26235 10.1588 2.85
    endloop
  endfacet
  facet normal -0.335298 0.629855 -0.700612
    outer loop
      vertex -4.63942 11.4175 1.28334
      vertex -3.50916 13.3436 2.474
      vertex -1.61354 13.0283 1.28334
    endloop
  endfacet
  facet normal -0.415594 0.6421 -0.644197
    outer loop
      vertex -3.50916 13.3436 2.474
      vertex -4.63942 11.4175 1.28334
      vertex -5.3138 12.3013 2.59933
    endloop
  endfacet
  facet normal -0.361182 0.581462 -0.729006
    outer loop
      vertex -1.70452 14.386 2.41133
      vertex -1.61354 13.0283 1.28334
      vertex -3.50916 13.3436 2.474
    endloop
  endfacet
  facet normal -0.654543 0.456698 -0.602495
    outer loop
      vertex -1.70452 14.386 2.41133
      vertex -0.295169 14.9178 1.28334
      vertex -1.61354 13.0283 1.28334
    endloop
  endfacet
  facet normal -0.57521 -0.171913 -0.799737
    outer loop
      vertex -0.295169 14.9178 1.28334
      vertex -1.70452 14.386 2.41133
      vertex -1.94504 15.7738 2.286
    endloop
  endfacet
  facet normal 0.172529 -0.720027 -0.672157
    outer loop
      vertex -2.38277 14.725 1.28334
      vertex -3.50916 13.3436 2.474
      vertex -4.77954 14.1507 1.28334
    endloop
  endfacet
  facet normal 0.424693 -0.764408 -0.485095
    outer loop
      vertex -3.50916 13.3436 2.474
      vertex -2.38277 14.725 1.28334
      vertex -1.70452 14.386 2.41133
    endloop
  endfacet
  facet normal 0.454863 -0.599814 -0.658273
    outer loop
      vertex -4.77954 14.1507 1.28334
      vertex -5.3138 12.3013 2.59933
      vertex -6.30458 12.9942 1.28334
    endloop
  endfacet
  facet normal 0.300823 -0.609086 -0.733839
    outer loop
      vertex -5.3138 12.3013 2.59933
      vertex -4.77954 14.1507 1.28334
      vertex -3.50916 13.3436 2.474
    endloop
  endfacet
  facet normal 0.854484 0.125326 -0.504134
    outer loop
      vertex -2.18557 17.1617 2.22334
      vertex -1.94504 15.7738 2.286
      vertex -2.38277 14.725 1.28334
    endloop
  endfacet
  facet normal 0.722147 0.197321 -0.663
    outer loop
      vertex -2.38277 14.725 1.28334
      vertex -3.65985 19.3988 1.28334
      vertex -2.18557 17.1617 2.22334
    endloop
  endfacet
  facet normal 0.865921 0.105927 -0.488836
    outer loop
      vertex -1.94504 15.7738 2.286
      vertex -1.70452 14.386 2.41133
      vertex -2.38277 14.725 1.28334
    endloop
  endfacet
  facet normal -0.600543 -0.280379 -0.748823
    outer loop
      vertex -1.94504 15.7738 2.286
      vertex -1.30138 17.073 1.28334
      vertex -0.295169 14.9178 1.28334
    endloop
  endfacet
  facet normal -0.726775 -0.156152 -0.66889
    outer loop
      vertex -1.30138 17.073 1.28334
      vertex -1.94504 15.7738 2.286
      vertex -2.18557 17.1617 2.22334
    endloop
  endfacet
  facet normal -0.726991 0.0250346 -0.68619
    outer loop
      vertex -2.18557 17.1617 2.22334
      vertex -1.19821 20.069 1.28334
      vertex -1.30138 17.073 1.28334
    endloop
  endfacet
  facet normal 0.0909914 -0.334211 -0.938096
    outer loop
      vertex -2.18557 17.1617 2.22334
      vertex -3.65985 19.3988 1.28334
      vertex -1.19821 20.069 1.28334
    endloop
  endfacet
  facet normal 0.518563 0.406054 -0.752471
    outer loop
      vertex -11.3511 3.65128 2.41133
      vertex -14.2285 5.23563 1.28334
      vertex -13.6523 6.24172 2.22334
    endloop
  endfacet
  facet normal 0.538526 0.490003 -0.685483
    outer loop
      vertex -14.2285 5.23563 1.28334
      vertex -11.3511 3.65128 2.41133
      vertex -11.7744 2.53851 1.28334
    endloop
  endfacet
  facet normal 0.146613 -0.726879 -0.670933
    outer loop
      vertex -13.6523 6.24172 2.22334
      vertex -15.9258 6.6508 1.28334
      vertex -13.0476 7.23134 1.28334
    endloop
  endfacet
  facet normal 0.000454243 0.682561 -0.730829
    outer loop
      vertex -13.6523 6.24172 2.22334
      vertex -14.2285 5.23563 1.28334
      vertex -15.3705 5.23639 1.28334
    endloop
  endfacet
  facet normal 0.401397 0.157589 -0.902245
    outer loop
      vertex -13.6523 6.24172 2.22334
      vertex -15.3705 5.23639 1.28334
      vertex -15.9258 6.6508 1.28334
    endloop
  endfacet
  facet normal 0.739077 -0.406871 -0.536862
    outer loop
      vertex -6.31011 3.88968 1.28334
      vertex -7.5459 -0.00887952 2.53667
      vertex -8.46604 -0.0265492 1.28334
    endloop
  endfacet
  facet normal 0.695288 -0.410143 -0.590217
    outer loop
      vertex -5.3738 3.49298 2.662
      vertex -7.5459 -0.00887952 2.53667
      vertex -6.31011 3.88968 1.28334
    endloop
  endfacet
  facet normal 0.697236 -0.406447 -0.590477
    outer loop
      vertex -5.3738 3.49298 2.662
      vertex -6.31011 3.88968 1.28334
      vertex -3.52883 6.3848 2.85
    endloop
  endfacet
  facet normal -0.663164 0.472792 -0.580242
    outer loop
      vertex -4.34313 3.24667 1.28334
      vertex -6.62934 0.0399028 1.28334
      vertex -5.3738 3.49298 2.662
    endloop
  endfacet
  facet normal -0.667793 0.463893 -0.582113
    outer loop
      vertex -4.34313 3.24667 1.28334
      vertex -5.3738 3.49298 2.662
      vertex -3.52883 6.3848 2.85
    endloop
  endfacet
  facet normal -0.722552 0.466439 -0.510248
    outer loop
      vertex -5.3738 3.49298 2.662
      vertex -6.62934 0.0399028 1.28334
      vertex -7.5459 -0.00887952 2.53667
    endloop
  endfacet
  facet normal -0.801761 -0.095101 -0.590029
    outer loop
      vertex -6.62934 0.0399028 1.28334
      vertex -7.09383 -1.87614 2.22334
      vertex -7.5459 -0.00887952 2.53667
    endloop
  endfacet
  facet normal -0.285798 0.351132 -0.891642
    outer loop
      vertex -7.09383 -1.87614 2.22334
      vertex -6.12619 -3.47552 1.28334
      vertex -6.5448 -3.81624 1.28334
    endloop
  endfacet
  facet normal -0.781324 -0.111828 -0.614026
    outer loop
      vertex -6.62934 0.0399028 1.28334
      vertex -6.12619 -3.47552 1.28334
      vertex -7.09383 -1.87614 2.22334
    endloop
  endfacet
  facet normal 0.776646 0.259855 -0.573843
    outer loop
      vertex -7.5459 -0.00887952 2.53667
      vertex -7.78783 -2.05356 1.28334
      vertex -8.46604 -0.0265492 1.28334
    endloop
  endfacet
  facet normal 0.745695 0.281844 -0.603741
    outer loop
      vertex -7.78783 -2.05356 1.28334
      vertex -7.5459 -0.00887952 2.53667
      vertex -7.09383 -1.87614 2.22334
    endloop
  endfacet
  facet normal 0.521052 -0.822084 -0.229528
    outer loop
      vertex -7.09383 -1.87614 2.22334
      vertex -8.60939 -2.57428 1.28334
      vertex -7.78783 -2.05356 1.28334
    endloop
  endfacet
  facet normal 0.494582 0.0902372 -0.864434
    outer loop
      vertex -7.09383 -1.87614 2.22334
      vertex -8.42391 -3.59088 1.28334
      vertex -8.60939 -2.57428 1.28334
    endloop
  endfacet
  facet normal 0.0536878 0.447663 -0.892589
    outer loop
      vertex -7.09383 -1.87614 2.22334
      vertex -6.5448 -3.81624 1.28334
      vertex -8.42391 -3.59088 1.28334
    endloop
  endfacet
  facet normal -0.477211 0.691752 -0.541986
    outer loop
      vertex 0.23042 10.1037 2.662
      vertex 1.38066 10.8481 2.59933
      vertex 0.882825 9.47359 1.28334
    endloop
  endfacet
  facet normal 0.248298 0.682002 -0.687911
    outer loop
      vertex 2.35157 8.93886 1.28334
      vertex 0.882825 9.47359 1.28334
      vertex 2.35006 10.2036 2.53667
    endloop
  endfacet
  facet normal 0.231952 0.684838 -0.690793
    outer loop
      vertex 2.35006 10.2036 2.53667
      vertex 3.31947 9.55921 2.22334
      vertex 2.35157 8.93886 1.28334
    endloop
  endfacet
  facet normal 0.340038 0.583181 -0.737749
    outer loop
      vertex 0.882825 9.47359 1.28334
      vertex 1.38066 10.8481 2.59933
      vertex 2.35006 10.2036 2.53667
    endloop
  endfacet
  facet normal 0.709837 -0.704366 0
    outer loop
      vertex -2.1841 8.98186 0
      vertex 1.20591 12.3982 0
      vertex -2.1841 8.98186 1.28334
    endloop
  endfacet
  facet normal 0.709837 -0.704366 0
    outer loop
      vertex -2.1841 8.98186 1.28334
      vertex 1.20591 12.3982 0
      vertex 1.20591 12.3982 1.28334
    endloop
  endfacet
  facet normal -0.719922 -0.694055 0
    outer loop
      vertex 1.20591 12.3982 0
      vertex 2.70099 10.8474 0
      vertex 1.20591 12.3982 1.28334
    endloop
  endfacet
  facet normal -0.719922 -0.694055 0
    outer loop
      vertex 1.20591 12.3982 1.28334
      vertex 2.70099 10.8474 0
      vertex 2.70099 10.8474 1.28334
    endloop
  endfacet
  facet normal -0.386432 -0.922318 0
    outer loop
      vertex 2.70099 10.8474 0
      vertex 4.27553 10.1877 0
      vertex 2.70099 10.8474 1.28334
    endloop
  endfacet
  facet normal -0.386432 -0.922318 0
    outer loop
      vertex 2.70099 10.8474 1.28334
      vertex 4.27553 10.1877 0
      vertex 4.27553 10.1877 1.28334
    endloop
  endfacet
  facet normal -0.996367 0.0851619 0
    outer loop
      vertex 4.27553 10.1877 1.28334
      vertex 4.27553 10.1877 0
      vertex 4.05986 7.66443 1.28334
    endloop
  endfacet
  facet normal -0.996367 0.0851619 0
    outer loop
      vertex 4.05986 7.66443 1.28334
      vertex 4.27553 10.1877 0
      vertex 4.05986 7.66443 0
    endloop
  endfacet
  facet normal 0.203049 0.979169 -0
    outer loop
      vertex 4.05986 7.66443 0
      vertex 2.38569 8.0116 0
      vertex 4.05986 7.66443 1.28334
    endloop
  endfacet
  facet normal 0.203049 0.979169 0
    outer loop
      vertex 4.05986 7.66443 1.28334
      vertex 2.38569 8.0116 0
      vertex 2.38569 8.0116 1.28334
    endloop
  endfacet
  facet normal 0.999324 0.0367717 -0
    outer loop
      vertex 2.38569 8.0116 0
      vertex 2.35157 8.93886 0
      vertex 2.38569 8.0116 1.28334
    endloop
  endfacet
  facet normal 0.999324 0.0367717 0
    outer loop
      vertex 2.38569 8.0116 1.28334
      vertex 2.35157 8.93886 0
      vertex 2.35157 8.93886 1.28334
    endloop
  endfacet
  facet normal 0.342105 0.939662 0
    outer loop
      vertex 2.35157 8.93886 1.28334
      vertex 2.35157 8.93886 0
      vertex 0.882825 9.47359 1.28334
    endloop
  endfacet
  facet normal 0.342105 0.939662 0
    outer loop
      vertex 0.882825 9.47359 1.28334
      vertex 2.35157 8.93886 0
      vertex 0.882825 9.47359 0
    endloop
  endfacet
  facet normal -0.797265 0.60363 0
    outer loop
      vertex 0.882825 9.47359 0
      vertex -0.557712 7.57095 0
      vertex 0.882825 9.47359 1.28334
    endloop
  endfacet
  facet normal -0.797265 0.60363 0
    outer loop
      vertex 0.882825 9.47359 1.28334
      vertex -0.557712 7.57095 0
      vertex -0.557712 7.57095 1.28334
    endloop
  endfacet
  facet normal -0.98184 -0.189711 -0
    outer loop
      vertex -0.557712 7.57095 1.28334
      vertex -0.557712 7.57095 0
      vertex -0.387118 6.68805 1.28334
    endloop
  endfacet
  facet normal -0.98184 -0.189711 -0
    outer loop
      vertex -0.387118 6.68805 1.28334
      vertex -0.557712 7.57095 0
      vertex -0.387118 6.68805 0
    endloop
  endfacet
  facet normal -0.376867 -0.926267 0
    outer loop
      vertex -0.387118 6.68805 0
      vertex 2.95759 5.3272 0
      vertex -0.387118 6.68805 1.28334
    endloop
  endfacet
  facet normal -0.376867 -0.926267 0
    outer loop
      vertex -0.387118 6.68805 1.28334
      vertex 2.95759 5.3272 0
      vertex 2.95759 5.3272 1.28334
    endloop
  endfacet
  facet normal -0.908726 -0.417394 -0
    outer loop
      vertex 2.95759 5.3272 1.28334
      vertex 2.95759 5.3272 0
      vertex 4.46583 2.04355 1.28334
    endloop
  endfacet
  facet normal -0.908726 -0.417394 -0
    outer loop
      vertex 4.46583 2.04355 1.28334
      vertex 2.95759 5.3272 0
      vertex 4.46583 2.04355 0
    endloop
  endfacet
  facet normal -0.941186 0.33789 0
    outer loop
      vertex 4.46583 2.04355 1.28334
      vertex 4.46583 2.04355 0
      vertex 4.08441 0.981111 1.28334
    endloop
  endfacet
  facet normal -0.941186 0.33789 0
    outer loop
      vertex 4.08441 0.981111 1.28334
      vertex 4.46583 2.04355 0
      vertex 4.08441 0.981111 0
    endloop
  endfacet
  facet normal -0.187838 0.9822 0
    outer loop
      vertex 4.08441 0.981111 1.28334
      vertex 4.08441 0.981111 0
      vertex -3.00293e-06 0.199998 1.28334
    endloop
  endfacet
  facet normal -0.187838 0.9822 0
    outer loop
      vertex -3.00293e-06 0.199998 1.28334
      vertex 4.08441 0.981111 0
      vertex -3.00293e-06 0.199998 0
    endloop
  endfacet
  facet normal 0.756951 0.653472 0
    outer loop
      vertex -3.00293e-06 0.199998 1.28334
      vertex -3.00293e-06 0.199998 0
      vertex -2.86151 3.51463 1.28334
    endloop
  endfacet
  facet normal 0.756951 0.653472 0
    outer loop
      vertex -2.86151 3.51463 1.28334
      vertex -3.00293e-06 0.199998 0
      vertex -2.86151 3.51463 0
    endloop
  endfacet
  facet normal -0.177969 0.984036 0
    outer loop
      vertex -2.86151 3.51463 1.28334
      vertex -2.86151 3.51463 0
      vertex -4.34313 3.24667 1.28334
    endloop
  endfacet
  facet normal -0.177969 0.984036 0
    outer loop
      vertex -4.34313 3.24667 1.28334
      vertex -2.86151 3.51463 0
      vertex -4.34313 3.24667 0
    endloop
  endfacet
  facet normal -0.814254 0.580509 0
    outer loop
      vertex -4.34313 3.24667 1.28334
      vertex -4.34313 3.24667 0
      vertex -6.62934 0.0399028 1.28334
    endloop
  endfacet
  facet normal -0.814254 0.580509 0
    outer loop
      vertex -6.62934 0.0399028 1.28334
      vertex -4.34313 3.24667 0
      vertex -6.62934 0.0399028 0
    endloop
  endfacet
  facet normal -0.989912 -0.141683 -0
    outer loop
      vertex -6.62934 0.0399028 1.28334
      vertex -6.62934 0.0399028 0
      vertex -6.12619 -3.47552 1.28334
    endloop
  endfacet
  facet normal -0.989912 -0.141683 -0
    outer loop
      vertex -6.12619 -3.47552 1.28334
      vertex -6.62934 0.0399028 0
      vertex -6.12619 -3.47552 0
    endloop
  endfacet
  facet normal -0.631261 0.77557 0
    outer loop
      vertex -6.12619 -3.47552 1.28334
      vertex -6.12619 -3.47552 0
      vertex -6.5448 -3.81624 1.28334
    endloop
  endfacet
  facet normal -0.631261 0.77557 0
    outer loop
      vertex -6.5448 -3.81624 1.28334
      vertex -6.12619 -3.47552 0
      vertex -6.5448 -3.81624 0
    endloop
  endfacet
  facet normal 0.119076 0.992885 0
    outer loop
      vertex -6.5448 -3.81624 1.28334
      vertex -6.5448 -3.81624 0
      vertex -8.42391 -3.59088 1.28334
    endloop
  endfacet
  facet normal 0.119076 0.992885 0
    outer loop
      vertex -8.42391 -3.59088 1.28334
      vertex -6.5448 -3.81624 0
      vertex -8.42391 -3.59088 0
    endloop
  endfacet
  facet normal 0.98376 0.179488 0
    outer loop
      vertex -8.42391 -3.59088 1.28334
      vertex -8.42391 -3.59088 0
      vertex -8.60939 -2.57428 1.28334
    endloop
  endfacet
  facet normal 0.98376 0.179488 0
    outer loop
      vertex -8.60939 -2.57428 1.28334
      vertex -8.42391 -3.59088 0
      vertex -8.60939 -2.57428 0
    endloop
  endfacet
  facet normal 0.535345 -0.844634 0
    outer loop
      vertex -8.60939 -2.57428 0
      vertex -7.78783 -2.05356 0
      vertex -8.60939 -2.57428 1.28334
    endloop
  endfacet
  facet normal 0.535345 -0.844634 0
    outer loop
      vertex -8.60939 -2.57428 1.28334
      vertex -7.78783 -2.05356 0
      vertex -7.78783 -2.05356 1.28334
    endloop
  endfacet
  facet normal 0.948326 0.317297 0
    outer loop
      vertex -7.78783 -2.05356 1.28334
      vertex -7.78783 -2.05356 0
      vertex -8.46604 -0.0265492 1.28334
    endloop
  endfacet
  facet normal 0.948326 0.317297 0
    outer loop
      vertex -8.46604 -0.0265492 1.28334
      vertex -7.78783 -2.05356 0
      vertex -8.46604 -0.0265492 0
    endloop
  endfacet
  facet normal 0.876027 -0.482263 0
    outer loop
      vertex -8.46604 -0.0265492 0
      vertex -6.31011 3.88968 0
      vertex -8.46604 -0.0265492 1.28334
    endloop
  endfacet
  facet normal 0.876027 -0.482263 0
    outer loop
      vertex -8.46604 -0.0265492 1.28334
      vertex -6.31011 3.88968 0
      vertex -6.31011 3.88968 1.28334
    endloop
  endfacet
  facet normal 0.966284 0.257477 -0
    outer loop
      vertex -6.31011 3.88968 0
      vertex -7.27915 7.52638 0
      vertex -6.31011 3.88968 1.28334
    endloop
  endfacet
  facet normal 0.966284 0.257477 0
    outer loop
      vertex -6.31011 3.88968 1.28334
      vertex -7.27915 7.52638 0
      vertex -7.27915 7.52638 1.28334
    endloop
  endfacet
  facet normal -0.907489 0.420077 0
    outer loop
      vertex -7.27915 7.52638 1.28334
      vertex -7.27915 7.52638 0
      vertex -8.77928 4.28566 1.28334
    endloop
  endfacet
  facet normal -0.907489 0.420077 0
    outer loop
      vertex -8.77928 4.28566 1.28334
      vertex -7.27915 7.52638 0
      vertex -8.77928 4.28566 0
    endloop
  endfacet
  facet normal -0.652355 0.757914 0
    outer loop
      vertex -8.77928 4.28566 1.28334
      vertex -8.77928 4.28566 0
      vertex -10.8138 2.5345 1.28334
    endloop
  endfacet
  facet normal -0.652355 0.757914 0
    outer loop
      vertex -10.8138 2.5345 1.28334
      vertex -8.77928 4.28566 0
      vertex -10.8138 2.5345 0
    endloop
  endfacet
  facet normal 0.00417444 0.999991 0
    outer loop
      vertex -10.8138 2.5345 1.28334
      vertex -10.8138 2.5345 0
      vertex -11.7744 2.53851 1.28334
    endloop
  endfacet
  facet normal 0.00417444 0.999991 0
    outer loop
      vertex -11.7744 2.53851 1.28334
      vertex -10.8138 2.5345 0
      vertex -11.7744 2.53851 0
    endloop
  endfacet
  facet normal 0.739643 0.672999 -0
    outer loop
      vertex -11.7744 2.53851 0
      vertex -14.2285 5.23563 0
      vertex -11.7744 2.53851 1.28334
    endloop
  endfacet
  facet normal 0.739643 0.672999 0
    outer loop
      vertex -11.7744 2.53851 1.28334
      vertex -14.2285 5.23563 0
      vertex -14.2285 5.23563 1.28334
    endloop
  endfacet
  facet normal 0.000665499 1 0
    outer loop
      vertex -14.2285 5.23563 1.28334
      vertex -14.2285 5.23563 0
      vertex -15.3705 5.23639 1.28334
    endloop
  endfacet
  facet normal 0.000665499 1 0
    outer loop
      vertex -15.3705 5.23639 1.28334
      vertex -14.2285 5.23563 0
      vertex -15.3705 5.23639 0
    endloop
  endfacet
  facet normal 0.930832 0.365447 0
    outer loop
      vertex -15.3705 5.23639 1.28334
      vertex -15.3705 5.23639 0
      vertex -15.9258 6.6508 1.28334
    endloop
  endfacet
  facet normal 0.930832 0.365447 0
    outer loop
      vertex -15.9258 6.6508 1.28334
      vertex -15.3705 5.23639 0
      vertex -15.9258 6.6508 0
    endloop
  endfacet
  facet normal 0.197721 -0.980258 0
    outer loop
      vertex -15.9258 6.6508 0
      vertex -13.0476 7.23134 0
      vertex -15.9258 6.6508 1.28334
    endloop
  endfacet
  facet normal 0.197721 -0.980258 0
    outer loop
      vertex -15.9258 6.6508 1.28334
      vertex -13.0476 7.23134 0
      vertex -13.0476 7.23134 1.28334
    endloop
  endfacet
  facet normal -0.750676 -0.66067 -0
    outer loop
      vertex -13.0476 7.23134 1.28334
      vertex -13.0476 7.23134 0
      vertex -10.8008 4.67845 1.28334
    endloop
  endfacet
  facet normal -0.750676 -0.66067 -0
    outer loop
      vertex -10.8008 4.67845 1.28334
      vertex -13.0476 7.23134 0
      vertex -10.8008 4.67845 0
    endloop
  endfacet
  facet normal 0.781871 -0.62344 0
    outer loop
      vertex -10.8008 4.67845 1.28334
      vertex -10.8008 4.67845 0
      vertex -9.40337 6.431 1.28334
    endloop
  endfacet
  facet normal 0.781871 -0.62344 0
    outer loop
      vertex -9.40337 6.431 1.28334
      vertex -10.8008 4.67845 0
      vertex -9.40337 6.431 0
    endloop
  endfacet
  facet normal 0.866037 0.499981 -0
    outer loop
      vertex -9.40337 6.431 0
      vertex -10.0116 7.48454 0
      vertex -9.40337 6.431 1.28334
    endloop
  endfacet
  facet normal 0.866037 0.499981 0
    outer loop
      vertex -9.40337 6.431 1.28334
      vertex -10.0116 7.48454 0
      vertex -10.0116 7.48454 1.28334
    endloop
  endfacet
  facet normal 0.950279 -0.311399 0
    outer loop
      vertex -10.0116 7.48454 0
      vertex -8.87416 10.9556 0
      vertex -10.0116 7.48454 1.28334
    endloop
  endfacet
  facet normal 0.950279 -0.311399 0
    outer loop
      vertex -10.0116 7.48454 1.28334
      vertex -8.87416 10.9556 0
      vertex -8.87416 10.9556 1.28334
    endloop
  endfacet
  facet normal 0.859181 0.511672 0
    outer loop
      vertex -8.87416 10.9556 1.28334
      vertex -8.87416 10.9556 0
      vertex -9.54628 12.0842 0
    endloop
  endfacet
  facet normal 0.859181 0.511672 0
    outer loop
      vertex -8.87416 10.9556 1.28334
      vertex -9.54628 12.0842 0
      vertex -9.54628 12.0842 1.28334
    endloop
  endfacet
  facet normal 0.328837 0.944387 -0
    outer loop
      vertex -9.54628 12.0842 0
      vertex -12.2921 13.0403 0
      vertex -9.54628 12.0842 1.28334
    endloop
  endfacet
  facet normal 0.328837 0.944387 0
    outer loop
      vertex -9.54628 12.0842 1.28334
      vertex -12.2921 13.0403 0
      vertex -12.2921 13.0403 1.28334
    endloop
  endfacet
  facet normal -0.090034 0.995939 0
    outer loop
      vertex -12.2921 13.0403 0
      vertex -14.8695 12.8073 0
      vertex -12.2921 13.0403 1.28334
    endloop
  endfacet
  facet normal -0.090034 0.995939 0
    outer loop
      vertex -12.2921 13.0403 1.28334
      vertex -14.8695 12.8073 0
      vertex -14.8695 12.8073 1.28334
    endloop
  endfacet
  facet normal 0.703625 -0.710571 0
    outer loop
      vertex -14.8695 12.8073 0
      vertex -13.0587 14.6004 0
      vertex -14.8695 12.8073 1.28334
    endloop
  endfacet
  facet normal 0.703625 -0.710571 0
    outer loop
      vertex -14.8695 12.8073 1.28334
      vertex -13.0587 14.6004 0
      vertex -13.0587 14.6004 1.28334
    endloop
  endfacet
  facet normal 0.0201395 -0.999797 0
    outer loop
      vertex -13.0587 14.6004 0
      vertex -8.74964 14.6872 0
      vertex -13.0587 14.6004 1.28334
    endloop
  endfacet
  facet normal 0.0201395 -0.999797 0
    outer loop
      vertex -13.0587 14.6004 1.28334
      vertex -8.74964 14.6872 0
      vertex -8.74964 14.6872 1.28334
    endloop
  endfacet
  facet normal -0.56927 -0.82215 0
    outer loop
      vertex -8.74964 14.6872 0
      vertex -6.30458 12.9942 0
      vertex -8.74964 14.6872 1.28334
    endloop
  endfacet
  facet normal -0.56927 -0.82215 0
    outer loop
      vertex -8.74964 14.6872 1.28334
      vertex -6.30458 12.9942 0
      vertex -6.30458 12.9942 1.28334
    endloop
  endfacet
  facet normal 0.604245 -0.796799 0
    outer loop
      vertex -6.30458 12.9942 0
      vertex -4.77954 14.1507 0
      vertex -6.30458 12.9942 1.28334
    endloop
  endfacet
  facet normal 0.604245 -0.796799 0
    outer loop
      vertex -6.30458 12.9942 1.28334
      vertex -4.77954 14.1507 0
      vertex -4.77954 14.1507 1.28334
    endloop
  endfacet
  facet normal 0.233018 -0.972472 0
    outer loop
      vertex -4.77954 14.1507 0
      vertex -2.38277 14.725 0
      vertex -4.77954 14.1507 1.28334
    endloop
  endfacet
  facet normal 0.233018 -0.972472 0
    outer loop
      vertex -4.77954 14.1507 1.28334
      vertex -2.38277 14.725 0
      vertex -2.38277 14.725 1.28334
    endloop
  endfacet
  facet normal 0.964638 0.26358 0
    outer loop
      vertex -2.38277 14.725 1.28334
      vertex -2.38277 14.725 0
      vertex -3.65985 19.3988 1.28334
    endloop
  endfacet
  facet normal 0.964638 0.26358 0
    outer loop
      vertex -3.65985 19.3988 1.28334
      vertex -2.38277 14.725 0
      vertex -3.65985 19.3988 0
    endloop
  endfacet
  facet normal 0.262696 -0.964879 0
    outer loop
      vertex -3.65985 19.3988 0
      vertex -1.19821 20.069 0
      vertex -3.65985 19.3988 1.28334
    endloop
  endfacet
  facet normal 0.262696 -0.964879 0
    outer loop
      vertex -3.65985 19.3988 1.28334
      vertex -1.19821 20.069 0
      vertex -1.19821 20.069 1.28334
    endloop
  endfacet
  facet normal -0.999408 0.0344155 0
    outer loop
      vertex -1.19821 20.069 1.28334
      vertex -1.19821 20.069 0
      vertex -1.30138 17.073 1.28334
    endloop
  endfacet
  facet normal -0.999408 0.0344155 0
    outer loop
      vertex -1.30138 17.073 1.28334
      vertex -1.19821 20.069 0
      vertex -1.30138 17.073 0
    endloop
  endfacet
  facet normal -0.90611 -0.423041 -0
    outer loop
      vertex -1.30138 17.073 1.28334
      vertex -1.30138 17.073 0
      vertex -0.295169 14.9178 1.28334
    endloop
  endfacet
  facet normal -0.90611 -0.423041 -0
    outer loop
      vertex -0.295169 14.9178 1.28334
      vertex -1.30138 17.073 0
      vertex -0.295169 14.9178 0
    endloop
  endfacet
  facet normal -0.820103 0.572215 0
    outer loop
      vertex -0.295169 14.9178 1.28334
      vertex -0.295169 14.9178 0
      vertex -1.61354 13.0283 1.28334
    endloop
  endfacet
  facet normal -0.820103 0.572215 0
    outer loop
      vertex -1.61354 13.0283 1.28334
      vertex -0.295169 14.9178 0
      vertex -1.61354 13.0283 0
    endloop
  endfacet
  facet normal -0.469906 0.882716 0
    outer loop
      vertex -1.61354 13.0283 0
      vertex -4.63942 11.4175 0
      vertex -1.61354 13.0283 1.28334
    endloop
  endfacet
  facet normal -0.469906 0.882716 0
    outer loop
      vertex -1.61354 13.0283 1.28334
      vertex -4.63942 11.4175 0
      vertex -4.63942 11.4175 1.28334
    endloop
  endfacet
  facet normal -0.704256 -0.709946 -0
    outer loop
      vertex -4.63942 11.4175 1.28334
      vertex -4.63942 11.4175 0
      vertex -2.1841 8.98186 1.28334
    endloop
  endfacet
  facet normal -0.704256 -0.709946 -0
    outer loop
      vertex -2.1841 8.98186 1.28334
      vertex -4.63942 11.4175 0
      vertex -2.1841 8.98186 0
    endloop
  endfacet
  facet normal 0 0 1
    outer loop
      vertex -7.78783 -2.05356 0
      vertex -8.42391 -3.59088 0
      vertex -6.5448 -3.81624 0
    endloop
  endfacet
  facet normal 0 -0 1
    outer loop
      vertex -8.42391 -3.59088 0
      vertex -7.78783 -2.05356 0
      vertex -8.60939 -2.57428 0
    endloop
  endfacet
  facet normal 0 0 1
    outer loop
      vertex -7.78783 -2.05356 0
      vertex -6.5448 -3.81624 0
      vertex -6.12619 -3.47552 0
    endloop
  endfacet
  facet normal 0 -0 1
    outer loop
      vertex -7.78783 -2.05356 0
      vertex -6.62934 0.0399028 0
      vertex -8.46604 -0.0265492 0
    endloop
  endfacet
  facet normal 0 0 1
    outer loop
      vertex -6.62934 0.0399028 0
      vertex -7.78783 -2.05356 0
      vertex -6.12619 -3.47552 0
    endloop
  endfacet
  facet normal 0 0 1
    outer loop
      vertex -14.2285 5.23563 0
      vertex -15.9258 6.6508 0
      vertex -15.3705 5.23639 0
    endloop
  endfacet
  facet normal -0 0 1
    outer loop
      vertex -15.9258 6.6508 0
      vertex -14.2285 5.23563 0
      vertex -13.0476 7.23134 0
    endloop
  endfacet
  facet normal 0 0 1
    outer loop
      vertex -13.0476 7.23134 0
      vertex -14.2285 5.23563 0
      vertex -10.8008 4.67845 0
    endloop
  endfacet
  facet normal 0 0 1
    outer loop
      vertex -10.8008 4.67845 0
      vertex -14.2285 5.23563 0
      vertex -11.7744 2.53851 0
    endloop
  endfacet
  facet normal 0 0 1
    outer loop
      vertex -10.8008 4.67845 0
      vertex -11.7744 2.53851 0
      vertex -10.8138 2.5345 0
    endloop
  endfacet
  facet normal 0 0 1
    outer loop
      vertex -10.8008 4.67845 0
      vertex -10.8138 2.5345 0
      vertex -8.77928 4.28566 0
    endloop
  endfacet
  facet normal -0 0 1
    outer loop
      vertex -10.8008 4.67845 0
      vertex -8.77928 4.28566 0
      vertex -9.40337 6.431 0
    endloop
  endfacet
  facet normal -0 0 1
    outer loop
      vertex -9.40337 6.431 0
      vertex -8.77928 4.28566 0
      vertex -7.27915 7.52638 0
    endloop
  endfacet
  facet normal 0 0 1
    outer loop
      vertex -1.61354 13.0283 0
      vertex -4.77954 14.1507 0
      vertex -4.63942 11.4175 0
    endloop
  endfacet
  facet normal -0 0 1
    outer loop
      vertex -4.77954 14.1507 0
      vertex -1.61354 13.0283 0
      vertex -2.38277 14.725 0
    endloop
  endfacet
  facet normal -0 0 1
    outer loop
      vertex -2.38277 14.725 0
      vertex -1.61354 13.0283 0
      vertex -0.295169 14.9178 0
    endloop
  endfacet
  facet normal 0 0 1
    outer loop
      vertex -1.30138 17.073 0
      vertex -2.38277 14.725 0
      vertex -0.295169 14.9178 0
    endloop
  endfacet
  facet normal 0 -0 1
    outer loop
      vertex -2.38277 14.725 0
      vertex -1.30138 17.073 0
      vertex -3.65985 19.3988 0
    endloop
  endfacet
  facet normal -0 0 1
    outer loop
      vertex -13.0587 14.6004 0
      vertex -12.2921 13.0403 0
      vertex -8.74964 14.6872 0
    endloop
  endfacet
  facet normal 0 0 1
    outer loop
      vertex -12.2921 13.0403 0
      vertex -13.0587 14.6004 0
      vertex -14.8695 12.8073 0
    endloop
  endfacet
  facet normal 0 0 1
    outer loop
      vertex -8.74964 14.6872 0
      vertex -12.2921 13.0403 0
      vertex -9.54628 12.0842 0
    endloop
  endfacet
  facet normal 0 0 1
    outer loop
      vertex -8.74964 14.6872 0
      vertex -9.54628 12.0842 0
      vertex -6.30458 12.9942 0
    endloop
  endfacet
  facet normal 0 0 1
    outer loop
      vertex -6.30458 12.9942 0
      vertex -9.54628 12.0842 0
      vertex -8.87416 10.9556 0
    endloop
  endfacet
  facet normal 0 0 1
    outer loop
      vertex -6.30458 12.9942 0
      vertex -8.87416 10.9556 0
      vertex -4.63942 11.4175 0
    endloop
  endfacet
  facet normal 0 -0 1
    outer loop
      vertex -9.40337 6.431 0
      vertex -7.27915 7.52638 0
      vertex -10.0116 7.48454 0
    endloop
  endfacet
  facet normal 0 0 1
    outer loop
      vertex -4.63942 11.4175 0
      vertex -8.87416 10.9556 0
      vertex -7.27915 7.52638 0
    endloop
  endfacet
  facet normal 0 0 1
    outer loop
      vertex -4.63942 11.4175 0
      vertex -7.27915 7.52638 0
      vertex -2.1841 8.98186 0
    endloop
  endfacet
  facet normal -0 0 1
    outer loop
      vertex -6.30458 12.9942 0
      vertex -4.63942 11.4175 0
      vertex -4.77954 14.1507 0
    endloop
  endfacet
  facet normal 0 0 1
    outer loop
      vertex -2.1841 8.98186 0
      vertex -7.27915 7.52638 0
      vertex -6.31011 3.88968 0
    endloop
  endfacet
  facet normal 0 0 1
    outer loop
      vertex -4.34313 3.24667 0
      vertex -6.31011 3.88968 0
      vertex -6.62934 0.0399028 0
    endloop
  endfacet
  facet normal -0 0 1
    outer loop
      vertex -6.31011 3.88968 0
      vertex -4.34313 3.24667 0
      vertex -2.1841 8.98186 0
    endloop
  endfacet
  facet normal 0 0 1
    outer loop
      vertex -2.1841 8.98186 0
      vertex -4.34313 3.24667 0
      vertex -2.86151 3.51463 0
    endloop
  endfacet
  facet normal 0 0 1
    outer loop
      vertex -2.1841 8.98186 0
      vertex -2.86151 3.51463 0
      vertex -0.387118 6.68805 0
    endloop
  endfacet
  facet normal 0 0 1
    outer loop
      vertex -0.387118 6.68805 0
      vertex -2.86151 3.51463 0
      vertex -3.00293e-06 0.199998 0
    endloop
  endfacet
  facet normal 0 0 1
    outer loop
      vertex -2.1841 8.98186 0
      vertex -0.387118 6.68805 0
      vertex -0.557712 7.57095 0
    endloop
  endfacet
  facet normal 0 0 1
    outer loop
      vertex -0.387118 6.68805 0
      vertex -3.00293e-06 0.199998 0
      vertex 2.95759 5.3272 0
    endloop
  endfacet
  facet normal 0 0 1
    outer loop
      vertex 2.95759 5.3272 0
      vertex -3.00293e-06 0.199998 0
      vertex 4.46583 2.04355 0
    endloop
  endfacet
  facet normal 0 0 1
    outer loop
      vertex 4.46583 2.04355 0
      vertex -3.00293e-06 0.199998 0
      vertex 4.08441 0.981111 0
    endloop
  endfacet
  facet normal 0 0 1
    outer loop
      vertex 0.882825 9.47359 0
      vertex -2.1841 8.98186 0
      vertex -0.557712 7.57095 0
    endloop
  endfacet
  facet normal 0 0 1
    outer loop
      vertex -2.1841 8.98186 0
      vertex 0.882825 9.47359 0
      vertex 1.20591 12.3982 0
    endloop
  endfacet
  facet normal 0 0 1
    outer loop
      vertex 1.20591 12.3982 0
      vertex 0.882825 9.47359 0
      vertex 2.70099 10.8474 0
    endloop
  endfacet
  facet normal 0 0 1
    outer loop
      vertex 2.70099 10.8474 0
      vertex 0.882825 9.47359 0
      vertex 2.35157 8.93886 0
    endloop
  endfacet
  facet normal 0 0 1
    outer loop
      vertex 2.70099 10.8474 0
      vertex 2.35157 8.93886 0
      vertex 4.27553 10.1877 0
    endloop
  endfacet
  facet normal 0 0 1
    outer loop
      vertex 4.27553 10.1877 0
      vertex 2.35157 8.93886 0
      vertex 4.05986 7.66443 0
    endloop
  endfacet
  facet normal 0 0 1
    outer loop
      vertex 4.05986 7.66443 0
      vertex 2.35157 8.93886 0
      vertex 2.38569 8.0116 0
    endloop
  endfacet
  facet normal 0 0 1
    outer loop
      vertex -10.0116 7.48454 0
      vertex -7.27915 7.52638 0
      vertex -8.87416 10.9556 0
    endloop
  endfacet
  facet normal 0 0 1
    outer loop
      vertex -8.46604 -0.0265492 0
      vertex -6.62934 0.0399028 0
      vertex -6.31011 3.88968 0
    endloop
  endfacet
  facet normal -0 0 1
    outer loop
      vertex -3.65985 19.3988 0
      vertex -1.30138 17.073 0
      vertex -1.19821 20.069 0
    endloop
  endfacet
  facet normal -0.369443 -0.429554 -0.824012
    outer loop
      vertex -3.52883 6.3848 2.85
      vertex -0.387118 6.68805 1.28334
      vertex -1.57668 5.06647 2.662
    endloop
  endfacet
  facet normal -0.434294 0.440678 -0.785615
    outer loop
      vertex -3.52883 6.3848 2.85
      vertex -1.26882 8.38864 2.72467
      vertex -0.387118 6.68805 1.28334
    endloop
  endfacet
endsolid OpenSCAD_Model
